<svg version="1.1" viewBox="0.0 0.0 436.5800524934383 100.0" fill="none" stroke="none" stroke-linecap="square" stroke-miterlimit="10" xmlns:xlink="http://www.w3.org/1999/xlink" xmlns="http://www.w3.org/2000/svg"><clipPath id="p.0"><path d="m0 0l436.58005 0l0 100.0l-436.58005 0l0 -100.0z" clip-rule="nonzero"/></clipPath><g clip-path="url(#p.0)"><path fill="#000000" fill-opacity="0.0" d="m0 0l436.58005 0l0 100.0l-436.58005 0z" fill-rule="evenodd"/><path fill="#000000" fill-opacity="0.0" d="m-1.167979 10.283464l326.2362 0l0 79.433075l-326.2362 0z" fill-rule="evenodd"/><path fill="#000000" d="m12.191396 61.28534q-1.359375 -1.03125 -2.234375 -2.578125q-0.859375 -1.546875 -1.359375 -3.28125q-0.484375 -1.734375 -0.65625 -3.578125q-0.15625 -1.859375 -0.109375 -3.546875q0.421875 -1.265625 1.03125 -2.3125q0.609375 -1.0625 1.359375 -2.015625q0.75 -0.96875 1.5625 -1.828125q0.828125 -0.875 1.625 -1.765625q0.28125 0 0.515625 0.140625q0.1875 -0.515625 0.5625 -0.890625q0.375 -0.375 0.796875 -0.671875q0.421875 -0.3125 0.84375095 -0.609375q0.421875 -0.3125 0.703125 -0.734375q1.171875 -0.28125 2.078125 -0.796875q0.921875 -0.515625 1.765625 -1.125q0.84375 -0.609375 1.734375 -1.125q0.890625 -0.515625 2.0625 -0.796875q0.421875 -0.46875 1.046875 -0.796875q0.640625 -0.328125 1.265625 -0.609375q0.640625 -0.28125 1.21875 -0.6093769q0.59375 -0.328125 0.96875 -0.890625q0.28125 0.375 0.796875 0.265625q0.515625 -0.125 0.9375 -0.265625q0.28125 -0.046875 0.46875 0.09375q0.1875 0.140625 0.34375 0.3125q0.171875 0.15625 0.28125 0.203125q0.125 0.046875 0.2656231 -0.28125q0.375 0.046875 0.203125 0.328125q-0.15625 0.28125 -0.203125 0.375q0.46875 -0.09375 0.765625 0.1718769q0.3125 0.25 0.96875 0.34375q0.234375 0.234375 0.140625 0.375q-0.09375 0.140625 -0.140625 0.46875q1.6875 0.515625 2.15625 1.625q0.46875 1.09375 0.09375 2.296875q-0.375 1.1875 -1.390625 2.203125q-1.0 1.0 -2.21875 1.328125q-1.4531231 0.375 -2.703123 0.75q-1.234375 0.375 -2.390625 0.84375q-1.140625 0.46875 -2.15625 1.109375q-1.0 0.625 -1.75 1.46875q-1.3125 0.375 -2.375 1.03125q-1.046875 0.65625 -1.96875 1.453125q-0.90625 0.796875 -1.75 1.671875q-0.84375 0.859375 -1.687501 1.703125q0 0.796875 -0.28125 1.21875q-0.28125 0.421875 -0.609375 0.84375q0.09375 0.890625 0.390625 1.53125q0.3125 0.625 0.640625 1.28125q3.750001 1.125 7.937501 1.390625q4.203125 0.25 8.328123 0.296875q0.421875 0.5625 0.953125 1.0625q0.546875 0.484375 0.984375 1.0q0.453125 0.515625 0.703125 1.203125q0.265625 0.671875 0.125 1.609375q-0.796875 0.796875 -1.734375 1.53125q-0.9375 0.71875 -1.8749981 1.421875q-0.421875 0.046875 -1.015625 0q-0.578125 -0.046875 -1.21875 -0.046875q-0.625 0 -1.265625 0.078125q-0.625 0.0625 -1.1875 0.296875q-2.953125 -0.09375 -6.046875 -0.71875q-3.09375 -0.640625 -5.718751 -1.53125q-0.515625 -0.609375 -1.078125 -1.140625q-0.5625 -0.546875 -1.5 -0.78125zm48.984375 -0.46875q0.09375 1.21875 -0.28125 2.015625q-0.375 0.796875 -1.03125 1.359375q-0.65625 0.5625 -1.5 0.890625q-0.84375 0.328125 -1.640625 0.609375q-0.375 -0.234375 -0.734375 -0.484375q-0.34375 -0.265625 -0.8125 -0.40625q-0.609375 -1.125 -1.171875 -1.984375q-0.5625 -0.875 -0.515625 -2.0q0 -0.046875 0.0625 -0.515625q0.078125 -0.46875 0.1875 -1.03125q0.125 -0.5625 0.1875 -1.046875q0.078125 -0.5 0.078125 -0.546875q-1.078125 0.09375 -2.25 0.46875q-1.171875 0.375 -2.28125 0.890625q-1.09375 0.515625 -2.0625 1.03125q-0.953125 0.515625 -1.5625 0.890625q0 0.140625 -0.1875 0.6875q-0.1875 0.53125 -0.46875 1.125q-0.28125 0.578125 -0.609375 1.046875q-0.328125 0.46875 -0.65625 0.46875q0.046875 0.140625 0.140625 0.28125q0.09375 0.140625 0 0.375q-0.65625 0.1875 -1.171875 0.484375q-0.515625 0.3125 -1.078125 0.515625q-0.5625 0.21875 -1.21875 0.21875q-0.65625 0 -1.546875 -0.46875q0 -0.28125 -0.234375 -0.484375q-0.234375 -0.21875 -0.5 -0.375q-0.25 -0.171875 -0.4375 -0.28125q-0.1875 -0.125 -0.1875 -0.21875q-0.234375 0.046875 -0.1875 -0.328125q0.046875 -0.375 0.375 -0.1875q-0.515625 -0.65625 -0.640625 -1.140625q-0.109375 -0.5 -0.53125 -1.25q0.09375 -0.09375 0.171875 -0.328125q0.0625 -0.234375 0.109375 -0.421875q0.046875 -0.1875 0.140625 -0.28125q0.09375 -0.09375 0.234375 0.046875q-0.09375 -0.421875 0 -0.703125q0.09375 -0.28125 0.1875 -0.515625q0.09375 -0.234375 0.140625 -0.46875q0.046875 -0.234375 -0.140625 -0.515625q0.75 -1.03125 0.984375 -2.21875q0.234375 -1.203125 0.28125 -2.1875q0.328125 -0.328125 0.578125 -0.9375q0.265625 -0.609375 0.40625 -1.234375q0.140625 -0.640625 0.109375 -1.21875q-0.015625 -0.59375 -0.15625 -0.96875q0.046875 -0.234375 0.515625 -0.140625q0.28125 -1.546875 0.390625 -3.484375q0.125 -1.953125 0.40625 -3.703125q0.28125 -1.765625 0.9375 -3.09375q0.65625 -1.34375 2.109375 -1.765625q0.28125 0.984375 0.71875 1.734375q0.453125 0.75 0.984375 1.4375q0.546875 0.671875 1.078125 1.375q0.546875 0.703125 1.015625 1.59375q-0.046875 0.890625 -0.1875 2.0625q-0.140625 1.171875 -0.359375 2.390625q-0.203125 1.21875 -0.421875 2.34375q-0.203125 1.125 -0.390625 1.921875q0.046875 0.234375 0.25 0.28125q0.21875 0.046875 0.078125 0.421875q1.125 -0.28125 2.34375 -0.515625q1.21875 -0.234375 2.4375 -0.515625q1.21875 -0.28125 2.359375 -0.625q1.15625 -0.359375 2.140625 -0.875q0.234375 -1.828125 0.609375 -3.65625q0.375 -1.828125 0.09375 -3.75q0.234375 -0.1875 0.375 -0.46875q0.140625 -0.28125 0.46875 -0.375q-0.234375 -0.890625 -0.1875 -1.875q0.046875 -0.984375 0.34375 -1.875q0.3125 -0.890625 0.890625 -1.515625q0.59375 -0.640625 1.4375 -0.828125q0.515625 0.75 0.890625 1.625q0.375 0.859375 0.765625 1.734375q0.40625 0.859375 0.84375 1.640625q0.453125 0.765625 1.15625 1.328125q0.140625 1.359375 0.20312881 2.8125q0.078125 1.453125 0.125 2.953125q-0.3750038 1.78125 -0.8281288 3.453125q-0.4375 1.65625 -0.625 3.53125q-0.328125 0.375 -0.515625 0.84375q-0.1875 0.46875 -0.375 0.96875q-0.1875 0.484375 -0.421875 0.9375q-0.234375 0.4375 -0.5625 0.765625q0.1875 0.5625 0.0625 1.0625q-0.109375 0.484375 0.265625 1.1875zm28.734379 0.609375q-0.28125 0.796875 -0.828125 1.625q-0.53125 0.8125 -1.265625 1.453125q-0.71875 0.625 -1.609375 1.046875q-0.890625 0.421875 -1.875 0.46875q-0.609375 -0.140625 -0.828125 -0.3125q-0.203125 -0.15625 -0.4375 -0.296875q-0.140625 -0.09375 -0.265625 -0.15625q-0.109375 -0.078125 -0.203125 -0.125l-0.5625 -0.234375l0.1875 -0.609375q0.09375 -0.375 -0.046875 -0.578125q-0.140625 -0.21875 -0.5625 -0.59375q-0.140625 -0.140625 -0.28125 -0.28125q-0.140625 -0.140625 -0.234375 -0.28125l-0.796875 -0.890625l1.265625 -0.328125q1.171875 -0.328125 1.5625 -0.84375q0.40625 -0.515625 0.3125 -1.734375q-0.9375 -0.1875 -1.578125 -0.046875q-0.625 0.140625 -1.28125 0.328125q-0.84375 0.234375 -1.71875 0.40625q-0.859375 0.15625 -1.890625 0.15625q-0.375 0 -0.703125 -0.015625q-0.328125 -0.03125 -0.703125 -0.078125l-0.46875 -0.09375q-0.09375 -0.515625 -0.1875 -0.578125q-0.09375 -0.078125 -0.1875 -0.171875q-0.234375 -0.234375 -0.5 -0.625q-0.25 -0.40625 -0.109375 -1.015625q-0.234375 -0.421875 -0.28125 -0.84375q-0.28125 0.5625 -0.421875 1.171875l-0.1875 0.46875l-0.46875 0.09375q-0.09375 0.046875 -0.140625 0.21875q-0.046875 0.15625 -0.046875 0.25l-0.234375 0.796875q-0.09375 0.09375 -0.1875 0.171875q-0.09375 0.0625 -0.1875 0.15625q-0.09375 0.421875 -0.234375 0.84375q-0.140625 0.421875 -0.28125 0.796875q-0.234375 0.609375 -0.40625 1.203125q-0.15625 0.578125 -0.109375 1.140625l-0.1875 0.515625q-0.234375 0.28125 -0.515625 0.453125q-0.28125 0.15625 -0.5625 0.296875q-0.09375 0.09375 -0.265625 0.171875q-0.15625 0.0625 -0.25 0.109375l-0.140625 0.515625l-0.5625 0.09375q-0.515625 0.09375 -0.734375 0.140625q-0.203125 0.046875 -0.484375 0.046875l-0.46875 -0.046875q-0.515625 -0.421875 -0.796875 -0.671875q-0.28125 -0.265625 -0.65625 -0.5q-0.421875 -0.5625 -0.46875 -0.84375q-0.046875 -0.28125 -0.09375 -0.515625q-0.09375 -0.28125 -0.109375 -0.46875q-0.03125 -0.1875 -0.125 -0.28125l-0.6093788 -0.5625l0.5156288 -0.421875l0.046875 -0.796875q0.9375 -2.390625 1.984375 -4.59375q1.0625 -2.203125 2.1875 -4.5q0.375 -0.75 0.71875 -1.5q0.359375 -0.75 0.734375 -1.5q-0.046875 -0.140625 -0.046875 -0.328125q0 -0.1875 0.09375 -0.421875q0.515625 -0.796875 0.84375 -1.421875q0.328125 -0.640625 0.65625 -1.296875q0.375 -0.796875 0.765625 -1.546875q0.40625 -0.75 1.015625 -1.546875l0.75 -0.328125q0.140625 -0.046875 0.328125 -0.109375q0.1875 -0.078125 0.421875 -0.078125l0.703125 0.09375q1.3125 -0.609375 2.296875 -1.703125q0.984375 -1.109375 2.015625 -2.65625l0.46875 -0.65625l0.609375 0.375q0.234375 0.140625 0.65625 0.265625q0.421875 0.109375 0.890625 0.25q0.84375 0.1875 1.59375 0.421875q0.75 0.234375 1.21875 0.703125q0.28125 0.75 0.328125 1.125q0.046875 0.375 0.140625 0.75q0.140625 0.796875 0.25 1.59375q0.125 0.796875 0.171875 1.78125q0.234375 0.796875 0.390625 1.578125q0.171875 0.765625 0.3125 1.5625q0.234375 1.125 0.46875 2.1875q0.234375 1.046875 0.609375 1.984375q0.375 0 0.46875 0.046875q0.234375 -0.09375 0.484375 -0.140625q0.265625 -0.046875 0.59375 -0.09375l0.515625 -0.046875l0.1875 0.46875q0.046875 0.234375 0.46875 0.46875q0.609375 0.046875 0.890625 0.265625q0.28125 0.203125 0.515625 0.4375q0.1875 0.1875 0.375 0.28125l0.703125 0.28125l-0.375 0.703125q-0.46875 0.84375 -1.34375 1.625q-0.859375 0.765625 -1.9375 1.28125q0.046875 0.28125 0.0625 0.546875q0.03125 0.25 0.125 0.53125q0.140625 0.796875 0.234375 1.640625q0.09375 0.84375 0 1.734375l-0.09375 0.1875zm-13.546875 -8.109375q1.40625 -0.09375 2.546875 -0.203125q1.15625 -0.125 2.5625 -0.40625q-0.328125 -1.40625 -0.703125 -2.921875q-0.375 -1.53125 -0.796875 -3.03125l-0.28125 0.46875q-0.9375 0.984375 -1.8125 2.203125q-0.859375 1.21875 -1.46875 2.296875q-0.28125 0.421875 -0.5625 0.84375q-0.28125 0.421875 -0.515625 0.84375q0.28125 -0.046875 0.53125 -0.046875q0.265625 0 0.5 -0.046875zm17.390625 -9.046875q0.328125 -0.984375 1.046875 -1.6875q0.734375 -0.703125 1.59375 -1.1875q0.875 -0.5 1.8125 -0.828125q0.9375 -0.328125 1.78125 -0.5625q1.875 -0.796875 4.0 -1.515625q2.140625 -0.734375 4.359375 -1.296875q2.234375 -0.5625 4.578125 -0.71875q2.34375 -0.171875 4.921875 0.578125q0.140625 0.46875 0.421875 0.890625q0.28125 0.421875 0.578125 0.84375q0.3125 0.421875 0.546875 0.828125q0.234375 0.390625 0.28125 0.8125q0.46875 0.421875 0.75 0.921875q0.28125 0.484375 0.09375 1.28125q-0.46875 0.375 -0.921875 0.6875q-0.4375 0.296875 -0.953125 0.53125q-1.734375 -0.421875 -3.515625 -0.28125q-1.78125 0.140625 -3.1875 0.234375q-0.421875 -0.421875 -1.015625 -0.421875q-0.578125 0 -1.21875 0.1875q-0.625 0.1875 -1.265625 0.375q-0.625 0.1875 -1.1875 0.09375q-0.46875 0.375 -1.15625 0.5q-0.671875 0.109375 -1.46875 0.203125q-0.046875 0.234375 0.09375 0.3125q0.140625 0.0625 0.046875 0.296875q0.28125 0.328125 0.71875 0.46875q0.453125 0.140625 0.9375 0.28125q0.5 0.140625 0.875 0.359375q0.375 0.203125 0.515625 0.671875q0.703125 0 1.21875 0.328125q0.515625 0.328125 0.84375 0.796875q0.328125 0.46875 0.484375 1.015625q0.171875 0.53125 0.171875 0.953125q0.140625 0.375 0.328125 0.328125q0.1875 -0.046875 0.421875 0.1875q0.140625 0.609375 0.703125 1.25q0.5625 0.625 0.890625 1.375q0.09375 1.171875 0.140625 2.09375q0.046875 0.90625 -0.328125 1.84375q-0.703125 1.734375 -1.953125 3.09375q-1.234375 1.359375 -2.8125 2.421875q-1.5625 1.046875 -3.34375 1.796875q-1.78125 0.75 -3.46875 1.265625q-0.1875 -0.046875 -0.375 0q-0.1875 0.046875 -0.09375 -0.234375q-0.375 0.328125 -0.828125 0.421875q-0.4375 0.09375 -0.953125 0.0625q-0.515625 -0.015625 -1.0625 -0.0625q-0.53125 -0.046875 -1.0 0.046875q-0.328125 -0.328125 -0.59375 -0.640625q-0.25 -0.296875 -0.390625 -0.765625q-0.234375 0 -0.21875 -0.234375q0.03125 -0.234375 -0.15625 -0.234375q0.28125 -0.46875 0.25 -0.53125q-0.015625 -0.078125 -0.140625 -0.125q-0.109375 -0.046875 -0.203125 -0.109375q-0.09375 -0.078125 -0.046875 -0.21875q0.1875 -0.375 0.140625 -0.859375q-0.046875 -0.5 -0.09375 -1.015625q-0.046875 -0.515625 0.0625 -0.984375q0.125 -0.46875 0.6875 -0.75q1.59375 0.1875 3.015625 -0.109375q1.4375 -0.3125 2.703125 -0.875q1.265625 -0.5625 2.40625 -1.21875q1.15625 -0.65625 2.28125 -1.171875q0.140625 -0.421875 0.390625 -0.703125q0.265625 -0.28125 0.546875 -0.515625q0.28125 -0.234375 0.515625 -0.515625q0.234375 -0.28125 0.328125 -0.703125q0.046875 -0.328125 -0.171875 -0.390625q-0.203125 -0.078125 -0.203125 -0.359375l-0.515625 -0.140625q-0.890625 -0.515625 -2.015625 -0.859375q-1.125 -0.359375 -1.921875 -0.78125q-0.515625 0.28125 -0.96875 0.140625q-0.4375 -0.140625 -1.140625 -0.28125q-1.59375 -0.09375 -3.078125 -0.328125q-1.46875 -0.234375 -2.828125 -0.84375q-0.09375 -0.234375 -0.234375 -0.421875q-0.140625 -0.1875 -0.515625 -0.09375q-0.28125 -0.375 -0.5625 -0.71875q-0.28125 -0.359375 -0.515625 -0.78125q0.09375 -0.5625 0.140625 -0.953125q0.046875 -0.40625 -0.28125 -0.78125q0.1875 -0.609375 0.28125 -0.984375q0.09375 -0.375 0 -0.984375zm31.453125 17.8125q0.234375 1.40625 -0.171875 2.203125q-0.390625 0.796875 -1.125 1.1875q-0.71875 0.40625 -1.65625 0.453125q-0.9375 0.046875 -1.78125 -0.09375q-0.46875 -0.65625 -0.84375 -1.640625q-0.375 -0.984375 -0.703125 -2.03125q-0.328125 -1.0625 -0.59375 -2.09375q-0.25 -1.03125 -0.4375 -1.828125q0.234375 -0.5625 0.296875 -1.28125q0.078125 -0.734375 0.09375 -1.484375q0.03125 -0.75 0.046875 -1.515625q0.03125 -0.78125 0.125 -1.484375q0.328125 -1.96875 0.953125 -3.75q0.640625 -1.78125 1.015625 -3.703125q0.09375 -0.421875 -0.078125 -0.796875q-0.15625 -0.375 -0.0625 -0.703125q0.046875 -0.1875 0.28125 -0.25q0.234375 -0.078125 0.28125 -0.3125q0.140625 -0.515625 0.0625 -0.84375q-0.0625 -0.328125 0.171875 -0.796875q0.234375 -0.375 0.578125 -1.09375q0.359375 -0.734375 0.265625 -1.53125q0.421875 -0.28125 0.796875 -0.65625q0.375 -0.375 0.765625 -0.671875q0.40625 -0.3125 0.890625 -0.546875q0.5 -0.234375 1.203125 -0.234375q0.375 0.46875 0.484375 1.03125q0.125 0.5625 0.234375 1.125q0.125 0.5625 0.359375 1.0625q0.234375 0.484375 0.796875 0.765625q0 0.375 0 0.9375q0 0.5625 0.046875 1.109375q0.046875 0.53125 0.203125 0.984375q0.171875 0.4375 0.5468674 0.578125q-0.8437424 2.25 -1.5781174 4.453125q-0.71875 2.203125 -1.1875 4.4375q-0.46875 2.21875 -0.59375 4.46875q-0.109375 2.25 0.3125 4.546875zm15.046867 -5.25q-0.421875 0.09375 -0.609375 0.5q-0.1875 0.390625 -0.359375 0.8125q-0.15625 0.421875 -0.328125 0.78125q-0.15625 0.34375 -0.484375 0.34375q-0.046875 0.375 -0.265625 0.65625q-0.203125 0.28125 -0.390625 0.59375q-0.1875 0.296875 -0.28125 0.65625q-0.09375 0.34375 0.09375 0.8125q-0.375 0.28125 -0.46875 0.796875q-0.09375 0.515625 -0.21875 0.984375q-0.109375 0.46875 -0.390625 0.796875q-0.28125 0.328125 -1.03125 0.28125q-0.140625 0.1875 -0.046875 0.234375q0.09375 0.046875 0.140625 0.328125q-0.515625 -0.09375 -0.78125 0.0625q-0.25 0.171875 -0.625 0.21875q-0.890625 -0.28125 -1.484375 -0.984375q-0.578125 -0.703125 -1.03125 -1.5625q-0.4375 -0.875 -0.796875 -1.765625q-0.34375 -0.890625 -0.671875 -1.546875q0.140625 -0.515625 0.046875 -1.0q-0.09375 -0.5 -0.328125 -0.828125q2.296875 -4.875 5.015625 -10.40625q2.71875 -5.53125 5.15625 -10.921875q1.078125 0.421875 2.125 0.96875q1.0625 0.53125 1.921875 1.234375q0.875 0.703125 1.484375 1.625q0.609375 0.90625 0.796875 2.03125q-0.09375 0.28125 -0.21875 0.21875q-0.109375 -0.078125 -0.203125 0.0625q0.1875 0.234375 0.203125 0.328125q0.03125 0.09375 0 0.1875q-0.015625 0.09375 -0.015625 0.265625q0 0.15625 0.140625 0.4375q-0.1875 -0.046875 -0.265625 0.046875q-0.0625 0.09375 -0.296875 0q0.1875 0.515625 0.109375 0.84375q-0.0625 0.328125 -0.203125 0.59375q-0.140625 0.25 -0.234375 0.5625q-0.09375 0.296875 0.046875 0.765625q-0.140625 0 -0.21875 0.078125q-0.0625 0.0625 -0.109375 0.140625q-0.046875 0.0625 -0.125 0.140625q-0.0625 0.0625 -0.203125 0.015625q0.140625 1.03125 0.09375 2.0625q-0.046875 1.03125 -0.078125 2.09375q-0.015625 1.046875 0.03125 2.203125q0.046875 1.140625 0.328125 2.359375q1.6875 -0.984375 2.6875 -2.53125q1.015625 -1.546875 1.640625 -3.46875q0.640625 -1.921875 0.96875 -4.125q0.328125 -2.203125 0.703125 -4.5q0.421875 -0.421875 0.65625 -1.03125q0.234375 -0.609375 0.421875 -1.28125q0.1875 -0.6875 0.375 -1.359375q0.1875 -0.6875 0.46875 -1.25q0.703125 0.09375 1.1875 0.453125q0.5 0.34375 0.921875 0.75q0.421875 0.390625 0.890625 0.75q0.46875 0.34375 1.171875 0.4375q0.5625 0.796875 1.03125 1.546875q0.46875 0.75 0.609375 1.59375q-0.234375 0.375 -0.359375 0.84375q-0.109375 0.46875 -0.25 0.9375q-0.140625 0.46875 -0.375 0.875q-0.234375 0.390625 -0.65625 0.671875q-0.140625 1.21875 -0.359375 2.234375q-0.203125 1.0 -0.421875 1.984375q-0.203125 0.984375 -0.34375 2.046875q-0.140625 1.046875 -0.09375 2.3125q-0.375 1.078125 -0.796875 2.296875q-0.421875 1.21875 -0.65625 2.203125q-0.75 0.609375 -1.171875 1.453125q-0.421875 0.84375 -0.890625 1.6875q-0.1875 0.1875 -0.234375 0.09375q-0.046875 -0.09375 -0.328125 -0.140625q0.046875 0.1875 0 0.28125q-0.046875 0.09375 -0.125 0.171875q-0.0625 0.0625 -0.09375 0.203125q-0.015625 0.140625 0.078125 0.375q-0.65625 0.28125 -1.171875 0.796875q-0.515625 0.515625 -1.109375 0.9375q-0.578125 0.421875 -1.40625 0.5625q-0.8125 0.140625 -2.125 -0.328125q-1.921875 -1.40625 -3.40625 -3.234375q-1.46875 -1.828125 -2.40625 -4.359375zm50.71875 0.09375q-1.125 2.015625 -2.953125 3.125q-1.828125 1.09375 -4.03125 1.828125q-2.203125 0.71875 -4.625 1.28125q-2.40625 0.5625 -4.65625 1.453125q-0.65625 0 -1.15625 0.046875q-0.484375 0.046875 -0.9375 0.125q-0.4375 0.0625 -0.859375 0.140625q-0.421875 0.0625 -0.9375 0.109375q-0.1875 -0.046875 -0.234375 0.078125q-0.046875 0.109375 -0.140625 0.203125q-0.796875 0.140625 -1.4375 0.140625q-0.625 0 -1.046875 0q-0.5625 0 -1.15625 0.15625q-0.578125 0.171875 -1.046875 0.125q-3.515625 -0.1875 -5.515625 -2.5q-1.984375 -2.328125 -2.21875 -6.453125q0.046875 -0.234375 -0.078125 -0.28125q-0.109375 -0.046875 -0.203125 -0.140625q0 -0.46875 0.109375 -0.796875q0.125 -0.328125 0.03125 -0.84375q1.21875 -2.578125 2.765625 -4.796875q1.546875 -2.234375 3.703125 -3.921875q0.328125 -0.28125 0.5625 -0.5625q0.234375 -0.28125 0.4375 -0.5625q0.21875 -0.28125 0.5 -0.484375q0.28125 -0.21875 0.703125 -0.3125q0.984375 -1.125 2.34375 -2.0625q1.359375 -0.9375 2.859375 -1.796875q1.5 -0.875 2.96875 -1.734375q1.484375 -0.875 2.703125 -1.953125q0.515625 0.234375 0.75 0.140625q0.234375 -0.09375 0.515625 0q0.328125 0.703125 0.90625 0.984375q0.59375 0.28125 1.171875 0.59375q0.59375 0.296875 1.109375 0.71875q0.515625 0.421875 0.796875 1.125q-0.28125 0 -0.265625 0.21875q0.03125 0.203125 0.125 0.421875q0.09375 0.203125 0.0625 0.421875q-0.015625 0.203125 -0.34375 0.203125q0.046875 0.234375 0.296875 0.265625q0.265625 0.015625 0.265625 0.25q0 0.234375 -0.125 0.375q-0.109375 0.140625 -0.015625 0.46875q-0.9375 0.609375 -2.09375 1.171875q-1.140625 0.5625 -2.390625 1.203125q-1.234375 0.625 -2.578125 1.359375q-1.328125 0.71875 -2.59375 1.65625q-1.265625 0.9375 -2.578125 2.09375q-1.3125 1.140625 -2.53125 2.40625q-1.21875 1.265625 -2.296875 2.609375q-1.078125 1.328125 -1.828125 2.640625q0.09375 0.234375 0.203125 0.359375q0.125 0.109375 0.21875 0.34375q1.5 0.09375 2.78125 -0.015625q1.296875 -0.125 2.609375 0.15625q0.140625 -0.09375 0.1875 -0.28125q0.046875 -0.1875 0.234375 -0.28125q2.671875 -0.28125 4.96875 -0.859375q2.296875 -0.59375 4.6875 -1.25q-0.375 -0.140625 -0.6875 -0.25q-0.296875 -0.125 -0.578125 -0.21875q-0.234375 -0.234375 0.015625 -0.390625q0.265625 -0.171875 0.453125 -0.359375q-0.65625 -0.375 -1.0625 -0.9375q-0.390625 -0.5625 -0.484375 -1.5q0.28125 -0.234375 0.28125 -0.5625q0 -0.328125 -0.28125 -0.515625q-0.1875 -0.046875 -0.234375 0q-0.046875 0.046875 -0.078125 0.140625q-0.015625 0.09375 -0.0625 0.171875q-0.046875 0.0625 -0.234375 -0.03125q0.046875 -0.421875 0.203125 -0.703125q0.171875 -0.28125 0.265625 -0.65625l3.234375 -2.15625q0.515625 0.375 1.265625 0.828125q0.75 0.4375 1.5625 0.890625q0.828125 0.4375 1.6875 0.890625q0.875 0.4375 1.625 0.859375q0.65625 0.28125 1.171875 0.75q0.515625 0.46875 0.984375 0.96875q0.46875 0.484375 0.953125 0.953125q0.5 0.46875 1.15625 0.796875q-0.09375 0.609375 0.046875 0.984375q0.140625 0.375 0.09375 0.9375zm14.625 3.984375l0.609375 -0.46875l0.046875 -0.984375q1.171875 -2.859375 2.40625 -5.484375q1.25 -2.625 2.609375 -5.390625q0.421875 -0.890625 0.859375 -1.78125q0.453125 -0.890625 0.875 -1.828125q-0.046875 -0.1875 -0.046875 -0.390625q0 -0.21875 0.09375 -0.5q0.65625 -0.9375 1.046875 -1.6875q0.40625 -0.75 0.78125 -1.546875q0.421875 -0.9375 0.90625 -1.875q0.5 -0.9375 1.25 -1.828125l0.328125 -0.46875l0.515625 0.046875q0.1875 -0.09375 0.390625 -0.15625q0.21875 -0.078125 0.546875 -0.078125l0.84375 0.140625q1.546875 -0.703125 2.734375 -2.03125q1.203125 -1.34375 2.421875 -3.218752l0.5625 -0.796875l0.75 0.46875q0.234375 0.140625 0.75 0.28125q0.515625 0.140625 1.078125 0.328125q0.984375 0.234375 1.921875 0.5468769q0.9375 0.296875 1.453125 0.8125l0.234375 0.421875q0.09375 0.515625 0.15625 0.9375q0.078125 0.421875 0.171875 0.84375q0.1875 0.984375 0.328125 1.953125q0.140625 0.953125 0.1875 2.125q0.234375 0.9375 0.4375 1.90625q0.21875 0.953125 0.40625 1.890625q0.234375 1.359375 0.515625 2.609375q0.28125 1.234375 0.75 2.359375q0.46875 0 0.5625 0.046875q0.5625 -0.234375 1.3125 -0.28125l0.609375 -0.046875l0.1875 0.5625q0.09375 0.140625 0.234375 0.28125q0.140625 0.140625 0.328125 0.28125q0.75 0.046875 1.09375 0.3125q0.359375 0.25 0.59375 0.484375q0.09375 0.09375 0.234375 0.21875q0.140625 0.109375 0.234375 0.15625l0.84375 0.328125l-0.46875 0.890625q-0.515625 0.984375 -1.578125 1.921875q-1.046875 0.9375 -2.359375 1.546875q0.09375 0.328125 0.109375 0.609375q0.03125 0.28125 0.125 0.65625q0.1875 0.9375 0.296875 1.953125q0.125 1.0 -0.015625 2.078125q-0.46875 1.21875 -1.109375 2.1875q-0.625 0.953125 -1.5 1.734375q-0.859375 0.765625 -1.9375 1.265625q-1.078125 0.484375 -2.25 0.53125q-0.65625 -0.140625 -0.96875 -0.328125q-0.296875 -0.1875 -0.53125 -0.375q-0.375 -0.28125 -0.609375 -0.375l-0.609375 -0.28125l0.1875 -0.703125q0.140625 -0.375 -0.03125 -0.65625q-0.15625 -0.28125 -0.671875 -0.75q-0.1875 -0.140625 -0.328125 -0.296875q-0.140625 -0.171875 -0.328125 -0.359375l-0.9375 -1.078125l1.546875 -0.421875q1.40625 -0.375 1.875 -0.953125q0.46875 -0.59375 0.375 -2.09375q-1.171875 -0.234375 -1.921875 -0.0625q-0.75 0.15625 -1.5 0.34375q-1.078125 0.28125 -2.109375 0.5q-1.03125 0.203125 -2.25 0.203125q-0.796875 0 -1.6875 -0.140625l-0.515625 -0.046875l-0.140625 -0.515625q0 -0.09375 -0.125 -0.203125q-0.109375 -0.125 -0.203125 -0.21875q-0.234375 -0.28125 -0.5625 -0.75q-0.328125 -0.46875 -0.140625 -1.171875q-0.328125 -0.515625 -0.375 -1.078125q-0.1875 0.375 -0.3125 0.734375q-0.109375 0.34375 -0.203125 0.671875l-0.1875 0.609375l-0.609375 0.09375q-0.09375 0.09375 -0.171875 0.28125q-0.0625 0.1875 -0.015625 0.28125l0.1875 0.515625l-0.46875 0.421875q-0.09375 0.140625 -0.234375 0.234375q-0.140625 0.09375 -0.234375 0.1875q-0.09375 0.515625 -0.265625 0.984375q-0.15625 0.46875 -0.34375 0.9375q-0.234375 0.75 -0.453125 1.453125q-0.203125 0.703125 -0.203125 1.40625l-0.1875 0.609375q-0.234375 0.375 -0.59375 0.5625q-0.34375 0.1875 -0.671875 0.328125q-0.46875 0.1875 -0.65625 0.375l-0.140625 0.609375l-0.703125 0.09375q-0.609375 0.140625 -0.875 0.1875q-0.25 0.046875 -0.578125 0.046875l-0.609375 -0.046875q-0.5625 -0.5625 -0.921875 -0.859375q-0.34375 -0.3125 -0.8125 -0.546875l-0.28125 -0.375q-0.1875 -0.375 -0.234375 -0.671875q-0.046875 -0.3125 -0.140625 -0.640625q-0.09375 -0.609375 -0.28125 -0.84375l-0.703125 -0.703125zm14.953125 -12.1875q-0.65625 0.9375 -1.265625 1.96875q0.328125 -0.046875 0.625 -0.046875q0.3125 0 0.640625 -0.046875q1.640625 -0.09375 3.046875 -0.234375q1.40625 -0.140625 3.046875 -0.46875q-0.375 -1.734375 -0.828125 -3.53125q-0.4375 -1.8125 -0.953125 -3.640625l-0.234375 0.46875q-1.171875 1.265625 -2.25 2.71875q-1.078125 1.453125 -1.78125 2.765625l-0.046875 0.046875zm32.34375 16.125q-1.3125 0.421875 -2.859375 0.84375q-1.546875 0.421875 -3.09375 0.421875q-2.34375 0 -3.703125 -1.171875q-0.234375 -0.515625 -0.421875 -0.703125q-0.140625 -0.1875 -0.265625 -0.390625q-0.109375 -0.21875 -0.15625 -0.59375q-0.5625 -0.65625 -0.890625 -1.515625q-0.328125 -0.875 -0.453125 -1.78125q-0.109375 -0.921875 -0.046875 -1.859375q0.078125 -0.9375 0.3125 -1.78125q0.09375 -0.1875 0.109375 -0.375q0.03125 -0.1875 0.078125 -0.421875q0.1875 -0.75 0.390625 -1.453125q0.21875 -0.703125 0.59375 -1.21875q-0.1875 -0.421875 0 -0.9375q0.1875 -0.515625 0.421875 -0.9375q0.65625 -1.78125 1.09375 -3.015625q0.453125 -1.25 0.921875 -2.46875q0.796875 -2.109375 1.5 -4.171875q0.703125 -2.0625 1.265625 -4.453125q0.375 -0.234375 0.5625 -0.328125q0.28125 -0.09375 0.46875 -0.140625q0.84375 0.421875 1.96875 0.828125q1.125 0.390625 1.875 0.390625q0.375 0.234375 0.46875 0.359375q0.09375 0.109375 0.1875 0.203125q0.515625 0.609375 0.890625 1.25q0.375 0.625 0.234375 1.65625q-0.28125 0.421875 -0.421875 0.421875q-0.234375 0.9375 -0.5 1.59375q-0.25 0.65625 -0.53125 1.3125q-0.328125 0.703125 -0.609375 1.40625q-0.28125 0.703125 -0.46875 1.734375q-0.1875 0.234375 -0.265625 0.421875q-0.0625 0.1875 -0.15625 0.421875q-0.09375 0.234375 -0.21875 0.5q-0.109375 0.25 -0.34375 0.4375q-0.140625 1.21875 -0.453125 1.96875q-0.296875 0.75 -0.625 1.5q-0.5625 1.359375 -1.015625 2.71875q-0.4375 1.359375 -0.53125 3.09375q0.234375 -0.09375 0.4375 -0.09375q0.21875 0 0.40625 0q0.421875 0 0.984375 0.140625q1.40625 -0.75 3.0625 -0.890625q1.671875 -0.140625 3.3125153 -0.1875q0.65625 0 1.3125 0q0.65625 0 1.21875 -0.09375q0.421875 0.234375 0.53125 0.265625q0.125 0.015625 0.359375 0.015625q0.328125 0 0.5625 0.046875q0.5625 0.515625 1.078125 0.75q0.515625 0.234375 1.078125 0.421875q0.515625 0.1875 1.0 0.40625q0.5 0.203125 0.96875 0.578125l0.328125 2.015625q0.328125 0.421875 0.28125 0.5625q0 0.375 -0.1875 0.5625l0.09375 0.515625q-0.703125 0.140625 -0.96875 0.328125q-0.25 0.1875 -0.484375 0.421875q-0.375 0.046875 -0.546875 0.046875q-0.15625 0 -0.296875 0q-0.65625 0 -1.59375 0.234375q-1.265625 -0.421875 -2.625 -0.421875q-0.515625 0 -1.078125 0.046875q-0.5625 0.046875 -1.125 0.09375q-0.56251526 0.09375 -1.1562653 0.140625q-0.578125 0.046875 -1.1875 0.046875l-1.078125 0.28125zm39.375015 -25.875q0.046875 0.328125 0.015625 0.5q-0.015625 0.15625 -0.046875 0.296875q-0.015625 0.140625 -0.015625 0.3125q0 0.15625 0.09375 0.484375q-0.984375 1.59375 -2.28125 2.1875q-1.28125 0.578125 -2.78125 0.84375q-1.5 0.25 -3.078125 0.53125q-1.5625 0.28125 -3.109375 1.21875q-0.609375 -0.234375 -1.109375 0q-0.484375 0.234375 -1.421875 0.140625q-0.28125 0.28125 -0.703125 0.40625q-0.421875 0.109375 -0.84375 0.25q0.1875 0.421875 0.15625 0.875q-0.015625 0.4375 0.125 0.71875q1.640625 0.140625 3.625 -0.046875q2.0 -0.1875 3.921875 -0.234375q0.046875 0.234375 -0.046875 0.3125q-0.09375 0.0625 -0.046875 0.25q0.328125 0.234375 0.65625 0.59375q0.328125 0.34375 0.65625 0.671875q0.328125 0.328125 0.671875 0.546875q0.359375 0.203125 0.828125 0.15625q0.1875 0.375 0.25 0.828125q0.078125 0.4375 -0.109375 0.90625q-0.75 0.515625 -1.5 1.0625q-0.75 0.53125 -1.578125 0.953125q-0.8125 0.421875 -1.734375 0.6875q-0.90625 0.25 -2.03125 0.203125q-0.234375 0 -0.359375 0q-0.109375 0 -0.296875 -0.140625q-0.375 0.234375 -1.0625 0.140625q-0.671875 -0.09375 -1.046875 0.140625q-0.515625 -0.234375 -1.25 -0.203125q-0.71875 0.015625 -1.28125 -0.171875q-0.75 0.984375 -1.359375 2.109375q-0.609375 1.125 -1.078125 2.390625q1.59375 0.234375 2.640625 0.1875q1.0625 -0.046875 2.0 -0.15625q0.9375 -0.125 1.921875 -0.234375q0.984375 -0.125 2.484375 -0.078125q0.9375 -0.515625 2.21875 -0.671875q1.296875 -0.171875 2.375 -0.546875q0.375 0.140625 0.65625 0.5q0.28125 0.34375 0.53125 0.65625q0.265625 0.296875 0.546875 0.53125q0.28125 0.234375 0.703125 0.1875q0.1875 0.1875 0.25 0.453125q0.078125 0.25 0.125 0.484375q0.046875 0.234375 0.15625 0.40625q0.125 0.15625 0.40625 0.109375q-0.703125 1.546875 -1.625 2.375q-0.90625 0.8125 -2.078125 1.234375q-1.171875 0.421875 -2.609375 0.65625q-1.421875 0.234375 -3.15625 0.5625q-0.421875 0.09375 -0.703125 -0.03125q-0.28125 -0.109375 -0.65625 -0.109375q-1.078125 0.234375 -2.578125 0.421875q-1.5 0.1875 -3.046875 0.140625q-1.546875 -0.046875 -2.953125 -0.40625q-1.40625 -0.34375 -2.296875 -1.234375q-0.375 -0.328125 -0.5 -0.765625q-0.109375 -0.453125 -0.625 -0.6875q-0.046875 -0.609375 -0.1875 -1.359375q-0.140625 -0.75 -0.28125 -1.5625q-0.140625 -0.828125 -0.21875 -1.625q-0.0625 -0.796875 0.078125 -1.453125q0.140625 -0.703125 0.578125 -1.265625q0.453125 -0.5625 0.3125 -1.21875q0.234375 -0.046875 0.28125 -0.25q0.046875 -0.21875 0.375 -0.171875q0.28125 -0.84375 0.609375 -1.59375q0.328125 -0.75 0.671875 -1.453125q0.359375 -0.703125 0.703125 -1.421875q0.359375 -0.734375 0.6875 -1.625q-0.65625 -0.609375 -0.96875 -1.328125q-0.296875 -0.734375 -0.4375 -1.453125q-0.140625 -0.734375 -0.234375 -1.5q-0.09375 -0.78125 -0.328125 -1.578125q0.46875 -0.703125 1.140625 -1.140625q0.6875 -0.453125 1.484375 -0.734375q0.796875 -0.28125 1.734375 -0.46875q0.9375 -0.1875 1.96875 -0.421875q1.875 -0.609375 3.34375 -0.9375q1.484375 -0.328125 2.90625 -0.53125q1.4375 -0.21875 2.984375 -0.40625q1.546875 -0.1875 3.515625 -0.5625q0.421875 0.421875 0.796875 0.421875q0.1875 -0.421875 0.4375 -0.25q0.265625 0.15625 0.21875 -0.265625q0.46875 0.796875 1.1875 1.34375q0.734375 0.53125 1.625 0.90625zm15.140625 25.171875q-0.703125 -2.34375 -2.046875 -4.5q-1.328125 -2.15625 -2.546875 -3.703125q-1.921875 1.453125 -3.640625 3.21875q-1.703125 1.75 -3.109375 3.765625q-0.09375 0.984375 -0.234375 1.625q-0.140625 0.625 -0.5 1.046875q-0.34375 0.421875 -0.890625 0.71875q-0.53125 0.3125 -1.375 0.640625q-1.546875 -1.125 -2.25 -2.78125q-0.703125 -1.671875 -0.1875 -3.3125q0.046875 -1.171875 0.578125 -2.296875q0.546875 -1.125 1.3125 -2.125q0.78125 -1.015625 1.671875 -1.921875q0.890625 -0.921875 1.6875 -1.71875q0.140625 -0.46875 0.53125 -0.8125q0.40625 -0.359375 0.84375 -0.6875q0.453125 -0.328125 0.890625 -0.703125q0.453125 -0.375 0.734375 -0.890625q-0.328125 -1.078125 -1.265625 -2.171875q-0.9375 -1.109375 -1.734375 -2.28125q-0.09375 -0.234375 -0.359375 -0.140625q-0.25 0.09375 -0.34375 -0.046875q0.09375 -0.609375 -0.265625 -1.3125q-0.34375 -0.703125 -0.859375 -1.21875q0.140625 -0.515625 0.328125 -1.234375q0.1875 -0.734375 -0.09375 -1.625q0 -0.375 0.140625 -0.71875q0.140625 -0.359375 0.28125 -0.65625q0.140625 -0.3125 0.234375 -0.609375q0.09375 -0.3125 -0.046875 -0.59375q0.609375 -0.09375 1.078125 0.046875q0.46875 0.140625 0.890625 0.328125q0.421875 0.1875 0.765625 0.28125q0.359375 0.09375 0.734375 -0.046875q-0.046875 0.234375 0 0.328125q0.046875 0.09375 0.140625 0.140625q0.09375 0.046875 0.1875 0.125q0.09375 0.0625 0.09375 0.203125q0.75 0.234375 1.640625 1.015625q0.890625 0.765625 1.703125 1.703125q0.828125 0.9375 1.484375 1.875q0.65625 0.9375 0.984375 1.40625q1.125 -0.703125 2.4375 -1.65625q1.3125 -0.96875 2.71875 -2.0q1.40625 -1.03125 2.828125 -1.9375q1.4375 -0.921875 2.796875 -1.484375q0.796875 0.375 1.234375 0.921875q0.453125 0.53125 0.75 1.125q0.3125 0.578125 0.546875 1.21875q0.234375 0.625 0.65625 1.09375q-0.375 0.796875 -0.828125 1.34375q-0.4375 0.53125 -0.625 1.234375q-0.984375 0.421875 -2.34375 1.265625q-1.21875 0.75 -2.984375 2.015625q-1.75 1.265625 -4.234375 3.375q0.5625 0.65625 0.9375 1.265625q0.375 0.609375 0.609375 1.03125q0.234375 0.515625 0.421875 0.9375q0.421875 0.328125 0.703125 0.75q0.28125 0.421875 0.53125 0.875q0.265625 0.4375 0.59375 0.84375q0.328125 0.390625 0.84375 0.625q0.28125 1.40625 0.796875 2.515625q0.515625 1.09375 0.46875 2.265625q-0.328125 1.078125 -0.96875 1.78125q-0.625 0.703125 -0.90625 1.453125q-0.421875 0.140625 -0.84375 0.28125q-0.421875 0.140625 -0.65625 0.421875l-2.671875 -1.921875z" fill-rule="nonzero"/><path fill="#000000" fill-opacity="0.0" d="m333.87927 8.692913l112.22046 0l0 82.61417l-112.22046 0z" fill-rule="evenodd"/><path fill="#000000" d="m344.19177 59.74166q-0.234375 0.046875 -0.421875 -0.34375q-0.1875 -0.40625 -0.421875 -0.78125l0.515625 0q-0.328125 -1.03125 -0.171875 -1.890625q0.171875 -0.875 0.40625 -1.6875q0.234375 -0.828125 0.390625 -1.59375q0.171875 -0.78125 -0.15625 -1.625q0.234375 0.140625 0.34375 -0.109375q0.125 -0.265625 0.1875 -0.65625q0.078125 -0.40625 0.046875 -0.84375q-0.015625 -0.453125 -0.0625 -0.734375q0.609375 -1.453125 0.953125 -3.0q0.359375 -1.546875 0.640625 -3.0625q0.28125 -1.53125 0.625 -2.953125q0.359375 -1.4375 0.921875 -2.703125q0.65625 -0.09375 1.375 0.171875q0.734375 0.25 0.96875 0.625q1.453125 -1.125 2.578125 -2.71875q1.125 -1.59375 2.265625 -3.109375q1.15625 -1.53125 2.609375 -2.703125q1.453125 -1.171875 3.609375 -1.40625q1.125 0.796875 2.53125 1.71875q1.40625 0.90625 2.296875 2.265625q0.375 0.234375 0.71875 0.5q0.359375 0.25 0.734375 0.484375l0 0.703125q0.65625 0.609375 1.09375 1.4375q0.453125 0.8125 0.796875 1.734375q0.359375 0.90625 0.6875 1.84375q0.328125 0.9375 0.75 1.734375q-0.09375 0.28125 -0.078125 0.5q0.03125 0.203125 0.09375 0.421875q0.078125 0.203125 0.125 0.46875q0.046875 0.25 0.046875 0.625q-0.1875 2.484375 -1.625 4.015625q-1.421875 1.515625 -3.46875 2.484375q-2.03125 0.953125 -4.328125 1.640625q-2.296875 0.671875 -4.171875 1.46875q0 0.1875 0.203125 0.1875q0.21875 0 0.125 0.28125q1.40625 0.84375 2.171875 1.359375q0.78125 0.515625 1.453125 0.875q0.6875 0.34375 1.5 0.578125q0.828125 0.234375 2.28125 0.5625q1.453125 0.328125 2.265625 0.546875q0.828125 0.203125 1.484375 0.328125q0.65625 0.109375 1.40625 0.203125q0.75 0.09375 2.015625 0.234375q0.515625 0.515625 0.84375 1.21875q0.328125 0.703125 0.46875 1.40625q0.140625 0.703125 0.0625 1.34375q-0.0625 0.625 -0.390625 1.0q0.046875 0.1875 0.25 0.171875q0.21875 -0.03125 0.453125 0.015625q-0.328125 0.234375 -0.5625 0.5625q-0.234375 0.328125 -0.46875 0.65625q-0.234375 0.328125 -0.546875 0.609375q-0.296875 0.28125 -0.765625 0.328125q-1.6875 0.65625 -4.3125 0.046875q-2.625 -0.609375 -6.703125 -2.15625q-2.015625 -0.75 -3.28125 -1.359375q-1.265625 -0.609375 -2.203125 -1.1875q-0.9375 -0.59375 -1.734375 -1.265625q-0.796875 -0.6875 -1.828125 -1.625q-0.140625 0.046875 -0.171875 0.1875q-0.015625 0.140625 -0.15625 0.1875q-0.234375 1.875 -0.734375 3.046875q-0.484375 1.171875 -1.421875 2.390625q-0.75 -0.140625 -1.015625 0.140625q-0.25 0.28125 -0.625 0.515625q-0.46875 0.09375 -0.703125 -0.03125q-0.234375 -0.109375 -0.421875 -0.25q-0.1875 -0.140625 -0.421875 -0.28125q-0.234375 -0.140625 -0.75 -0.09375q-0.140625 -0.421875 -0.28125 -0.8125q-0.140625 -0.40625 -0.75 -0.359375q0.140625 -0.421875 0.09375 -0.71875q-0.046875 -0.3125 -0.140625 -0.5625q-0.09375 -0.265625 -0.171875 -0.546875q-0.0625 -0.28125 0.078125 -0.65625zm15.65625 -21.421875q-0.609375 0.890625 -1.359375 1.625q-0.75 0.71875 -1.484375 1.5q-0.71875 0.765625 -1.28125 1.6875q-0.5625 0.90625 -0.796875 2.171875q1.96875 -0.234375 4.125 -1.09375q2.15625 -0.875 4.078125 -1.671875q-0.234375 -1.734375 -1.21875 -2.78125q-0.984375 -1.0625 -2.0625 -1.4375zm41.71875 -1.21875q0.09375 1.03125 0.328125 1.78125q0.234375 0.75 0.515625 1.453125q0.234375 0.65625 0.4375 1.296875q0.21875 0.625 0.3125 1.515625q-0.375 1.21875 -0.546875 2.25q-0.15625 1.03125 -0.34375 2.15625q-0.75 1.640625 -1.453125 2.90625q-0.703125 1.265625 -1.125 2.203125q-0.234375 0.234375 -0.40625 0.546875q-0.15625 0.296875 -0.34375 0.625q-0.09375 0.140625 -0.234375 0.421875q-0.140625 0.28125 -0.234375 0.375l-0.9375 -0.328125l-0.1875 1.171875l-0.65625 0.1875l-0.46875 0.5625q-0.890625 1.546875 -1.875 2.609375q-0.984375 1.046875 -2.234375 1.875q-1.234375 0.8125 -2.8125 1.515625q-1.5625 0.703125 -3.53125 1.546875q-0.796875 -0.09375 -1.390625 -0.109375q-0.578125 -0.03125 -1.09375 -0.078125q-0.890625 0 -2.203125 -0.140625q-0.140625 -0.375 -0.421875 -0.515625q-0.28125 -0.140625 -0.515625 -0.140625q-0.796875 -0.375 -1.203125 -1.09375q-0.390625 -0.734375 -0.765625 -1.578125q-0.234375 -0.515625 -0.46875 -0.953125q-0.234375 -0.453125 -0.515625 -0.921875l0.796875 -0.234375l-1.03125 -1.125q-0.09375 -0.140625 -0.234375 -0.25q-0.140625 -0.125 -0.234375 -0.265625l-0.046875 -0.75q-0.140625 -3.234375 -0.125 -5.921875q0.03125 -2.703125 0.734375 -4.8125l0 -0.515625q0.140625 -1.03125 0.28125 -1.703125q0.140625 -0.6875 0.234375 -1.296875q0.140625 -1.03125 0.421875 -1.921875q0.65625 -0.140625 0.984375 -0.53125q0.328125 -0.40625 0.5625 -0.734375q0.65625 -0.046875 0.890625 0.1875q0.234375 0.234375 0.46875 0.75q0.234375 0.421875 0.578125 0.9375q0.359375 0.515625 1.0625 0.796875q0.09375 0.375 0.25 0.78125q0.171875 0.390625 0.359375 0.859375q0.375 0.796875 0.671875 1.671875q0.3125 0.859375 0.359375 1.65625q-0.46875 0.890625 -0.734375 2.0625q-0.25 1.171875 -0.328125 2.375q-0.0625 1.1875 0.046875 2.296875q0.125 1.09375 0.40625 1.84375l0.28125 0.609375l0.796875 -0.09375q1.40625 -0.375 2.546875 -0.8125q1.15625 -0.453125 2.140625 -1.0625q0.984375 -0.609375 1.875 -1.421875q0.890625 -0.828125 1.875 -1.90625q0.984375 -1.078125 1.703125 -2.453125q0.734375 -1.390625 1.21875 -2.890625q0.5 -1.5 0.75 -2.96875q0.265625 -1.484375 0.359375 -2.796875q0.796875 -0.28125 0.796875 -1.125l-0.09375 -0.515625q-0.1875 -0.28125 0 -0.65625q0.28125 -0.890625 1.3125 -1.359375q0.75 0.46875 1.328125 1.03125q0.59375 0.5625 1.109375 1.125zm10.03125 18.140625q-0.421875 0.09375 -0.609375 0.5q-0.1875 0.390625 -0.359375 0.8125q-0.15625 0.421875 -0.328125 0.78125q-0.15625 0.34375 -0.484375 0.34375q-0.046875 0.375 -0.265625 0.65625q-0.203125 0.28125 -0.390625 0.59375q-0.1875 0.296875 -0.28125 0.65625q-0.09375 0.34375 0.09375 0.8125q-0.375 0.28125 -0.46875 0.796875q-0.09375 0.515625 -0.21875 0.984375q-0.109375 0.46875 -0.390625 0.796875q-0.28125 0.328125 -1.03125 0.28125q-0.140625 0.1875 -0.046875 0.234375q0.09375 0.046875 0.140625 0.328125q-0.515625 -0.09375 -0.78125 0.0625q-0.25 0.171875 -0.625 0.21875q-0.890625 -0.28125 -1.484375 -0.984375q-0.578125 -0.703125 -1.03125 -1.5625q-0.4375 -0.875 -0.796875 -1.765625q-0.34375 -0.890625 -0.671875 -1.546875q0.140625 -0.515625 0.046875 -1.0q-0.09375 -0.5 -0.328125 -0.828125q2.296875 -4.875 5.015625 -10.40625q2.71875 -5.53125 5.15625 -10.921875q1.078125 0.421875 2.125 0.96875q1.0625 0.53125 1.921875 1.234375q0.875 0.703125 1.484375 1.625q0.609375 0.90625 0.796875 2.03125q-0.09375 0.28125 -0.21875 0.21875q-0.109375 -0.078125 -0.203125 0.0625q0.1875 0.234375 0.203125 0.328125q0.03125 0.09375 0 0.1875q-0.015625 0.09375 -0.015625 0.265625q0 0.15625 0.140625 0.4375q-0.1875 -0.046875 -0.265625 0.046875q-0.0625 0.09375 -0.296875 0q0.1875 0.515625 0.109375 0.84375q-0.0625 0.328125 -0.203125 0.59375q-0.140625 0.25 -0.234375 0.5625q-0.09375 0.296875 0.046875 0.765625q-0.140625 0 -0.21875 0.078125q-0.0625 0.0625 -0.109375 0.140625q-0.046875 0.0625 -0.125 0.140625q-0.0625 0.0625 -0.203125 0.015625q0.140625 1.03125 0.09375 2.0625q-0.046875 1.03125 -0.078125 2.09375q-0.015625 1.046875 0.03125 2.203125q0.046875 1.140625 0.328125 2.359375q1.6875 -0.984375 2.6875 -2.53125q1.015625 -1.546875 1.640625 -3.46875q0.640625 -1.921875 0.96875 -4.125q0.328125 -2.203125 0.703125 -4.5q0.421875 -0.421875 0.65625 -1.03125q0.234375 -0.609375 0.421875 -1.28125q0.1875 -0.6875 0.375 -1.359375q0.1875 -0.6875 0.46875 -1.25q0.703125 0.09375 1.1875 0.453125q0.5 0.34375 0.921875 0.75q0.421875 0.390625 0.890625 0.75q0.46875 0.34375 1.171875 0.4375q0.5625 0.796875 1.03125 1.546875q0.46875 0.75 0.609375 1.59375q-0.234375 0.375 -0.359375 0.84375q-0.109375 0.46875 -0.25 0.9375q-0.140625 0.46875 -0.375 0.875q-0.234375 0.390625 -0.65625 0.671875q-0.140625 1.21875 -0.359375 2.234375q-0.203125 1.0 -0.421875 1.984375q-0.203125 0.984375 -0.34375 2.046875q-0.140625 1.046875 -0.09375 2.3125q-0.375 1.078125 -0.796875 2.296875q-0.421875 1.21875 -0.65625 2.203125q-0.75 0.609375 -1.171875 1.453125q-0.421875 0.84375 -0.890625 1.6875q-0.1875 0.1875 -0.234375 0.09375q-0.046875 -0.09375 -0.328125 -0.140625q0.046875 0.1875 0 0.28125q-0.046875 0.09375 -0.125 0.171875q-0.0625 0.0625 -0.09375 0.203125q-0.015625 0.140625 0.078125 0.375q-0.65625 0.28125 -1.171875 0.796875q-0.515625 0.515625 -1.109375 0.9375q-0.578125 0.421875 -1.40625 0.5625q-0.8125 0.140625 -2.125 -0.328125q-1.921875 -1.40625 -3.40625 -3.234375q-1.46875 -1.828125 -2.40625 -4.359375z" fill-rule="nonzero"/><path fill="#000000" d="m325.06693 50.0l0 0c0 -1.5220451 1.2338562 -2.7559052 2.7559204 -2.7559052l0 0c0.730896 0 1.4318848 0.29035187 1.9487 0.8071861c0.5168457 0.51683044 0.80718994 1.2178078 0.80718994 1.948719l0 0c0 1.5220451 -1.2338562 2.7559052 -2.75589 2.7559052l0 0c-1.5220642 0 -2.7559204 -1.23386 -2.7559204 -2.7559052z" fill-rule="evenodd"/><path stroke="#000000" stroke-width="1.0" stroke-linejoin="round" stroke-linecap="butt" d="m325.06693 50.0l0 0c0 -1.5220451 1.2338562 -2.7559052 2.7559204 -2.7559052l0 0c0.730896 0 1.4318848 0.29035187 1.9487 0.8071861c0.5168457 0.51683044 0.80718994 1.2178078 0.80718994 1.948719l0 0c0 1.5220451 -1.2338562 2.7559052 -2.75589 2.7559052l0 0c-1.5220642 0 -2.7559204 -1.23386 -2.7559204 -2.7559052z" fill-rule="evenodd"/></g></svg>