<svg version="1.1" viewBox="0.0 0.0 531.3175853018373 636.5826771653543" fill="none" stroke="none" stroke-linecap="square" stroke-miterlimit="10" xmlns:xlink="http://www.w3.org/1999/xlink" xmlns="http://www.w3.org/2000/svg"><clipPath id="p.0"><path d="m0 0l531.31757 0l0 636.5827l-531.31757 0l0 -636.5827z" clip-rule="nonzero"/></clipPath><g clip-path="url(#p.0)"><path fill="#000000" fill-opacity="0.0" d="m0 0l531.31757 0l0 636.5827l-531.31757 0z" fill-rule="evenodd"/><path fill="#00adb5" d="m448.0137 82.86877l0 0c99.411224 99.41125 99.411224 260.58875 0 360.0q-90.0 90.0 -180.0 180.0q-90.0 -90.0 -180.0 -180.0l0 0c-99.411255 -99.411255 -99.411255 -260.58875 0 -360.0l0 0c99.41126 -99.411255 260.58875 -99.411255 360.0 0z" fill-rule="evenodd"/><path stroke="#000000" stroke-width="24.0" stroke-linejoin="round" stroke-linecap="butt" d="m448.0137 82.86877l0 0c99.411224 99.41125 99.411224 260.58875 0 360.0q-90.0 90.0 -180.0 180.0q-90.0 -90.0 -180.0 -180.0l0 0c-99.411255 -99.411255 -99.411255 -260.58875 0 -360.0l0 0c99.41126 -99.411255 260.58875 -99.411255 360.0 0z" fill-rule="evenodd"/><path fill="#393e46" d="m67.00258 378.8242l198.65617 -330.7244l198.65616 330.7244z" fill-rule="evenodd"/><path stroke="#00adb5" stroke-width="1.0" stroke-linejoin="round" stroke-linecap="butt" d="m67.00258 378.8242l198.65617 -330.7244l198.65616 330.7244z" fill-rule="evenodd"/><path fill="#00adb5" d="m189.74414 405.43372l78.2706 -96.8121l78.2706 96.8121z" fill-rule="evenodd"/><path stroke="#00adb5" stroke-width="1.0" stroke-linejoin="round" stroke-linecap="butt" d="m189.74414 405.43372l78.2706 -96.8121l78.2706 96.8121z" fill-rule="evenodd"/></g></svg>