<svg version="1.1" viewBox="0.0 0.0 531.3175853018373 636.5826771653543" fill="none" stroke="none" stroke-linecap="square" stroke-miterlimit="10" xmlns:xlink="http://www.w3.org/1999/xlink" xmlns="http://www.w3.org/2000/svg"><clipPath id="p.0"><path d="m0 0l531.31757 0l0 636.5827l-531.31757 0l0 -636.5827z" clip-rule="nonzero"/></clipPath><g clip-path="url(#p.0)"><path fill="#000000" fill-opacity="0.0" d="m0 0l531.31757 0l0 636.5827l-531.31757 0z" fill-rule="evenodd"/><path fill="#393e46" d="m448.0137 82.86877l0 0c99.411224 99.41125 99.411224 260.58875 0 360.0q-90.0 90.0 -180.0 180.0q-90.0 -90.0 -180.0 -180.0l0 0c-99.411255 -99.411255 -99.411255 -260.58875 0 -360.0l0 0c99.41126 -99.411255 260.58875 -99.411255 360.0 0z" fill-rule="evenodd"/><path stroke="#000000" stroke-width="24.0" stroke-linejoin="round" stroke-linecap="butt" d="m448.0137 82.86877l0 0c99.411224 99.41125 99.411224 260.58875 0 360.0q-90.0 90.0 -180.0 180.0q-90.0 -90.0 -180.0 -180.0l0 0c-99.411255 -99.411255 -99.411255 -260.58875 0 -360.0l0 0c99.41126 -99.411255 260.58875 -99.411255 360.0 0z" fill-rule="evenodd"/><path fill="#000000" fill-opacity="0.0" d="m24.706038 142.96063l486.6142 0l0 122.01575l-486.6142 0z" fill-rule="evenodd"/><path fill="#00adb5" d="m179.87256 179.89188q-0.109375 1.40625 -0.375 4.140625q-0.25 2.734375 -0.59375 6.203125q-0.328125 3.453125 -0.703125 7.265625q-0.359375 3.796875 -0.703125 7.265625q-0.328125 3.453125 -0.59375 6.265625q-0.265625 2.8125 -0.359375 4.21875q-1.09375 11.09375 -3.734375 19.03125q-2.625 7.9375 -6.90625 13.0q-4.265625 5.046875 -10.234375 7.40625q-5.953125 2.375 -13.765625 2.375q-5.359375 0 -10.109375 -1.953125q-4.734375 -1.953125 -8.28125 -5.484375q-3.53125 -3.546875 -5.59375 -8.515625q-2.046875 -4.984375 -2.046875 -11.078125q0 -0.78125 0.125 -2.828125q0.125 -2.0625 0.359375 -5.03125q0.234375 -2.96875 0.515625 -6.734375q0.296875 -3.78125 0.609375 -8.046875l0.625 -8.65625q0.3125 -4.734375 0.46875 -7.875q0.15625 -3.15625 0.328125 -5.078125q0.1875 -1.9375 0.546875 -2.8125q0.375 -0.890625 1.15625 -1.15625l17.75 -3.953125q0.6875 -0.21875 1.40625 -0.21875q0.84375 0 1.125 0.46875q0.28125 0.46875 0.28125 1.78125l-3.953125 41.03125q-0.109375 1.828125 -0.375 3.96875q-0.25 2.125 -0.25 4.359375q0 1.359375 0.328125 2.984375q0.34375 1.609375 1.234375 3.046875q0.890625 1.421875 2.421875 2.390625q1.53125 0.953125 3.984375 0.953125q2.96875 0 4.78125 -1.265625q1.828125 -1.28125 2.921875 -3.390625q1.09375 -2.109375 1.59375 -4.78125q0.5 -2.6875 0.8125 -5.5q0.25 -3.28125 0.609375 -7.703125q0.375 -4.4375 0.734375 -9.484375l1.515625 -20.78125q0.109375 -0.9375 0.125 -1.5625q0.03125 -0.625 0.125 -1.03125q0.109375 -0.421875 0.453125 -0.625q0.34375 -0.21875 1.0625 -0.328125l17.765625 -4.3125q0.671875 -0.21875 1.40625 -0.21875q0.734375 0 1.0625 0.453125q0.34375 0.4375 0.34375 1.796875zm10.831528 -1.25q0 -0.3125 -0.03125 -0.578125q-0.015625 -0.265625 -0.015625 -0.515625q0 -0.46875 0.359375 -0.8125q0.359375 -0.34375 1.765625 -0.703125l14.640625 -3.484375q0.5625 -0.109375 1.5 -0.46875q0.9375 -0.359375 1.828125 -0.359375q1.828125 0 1.828125 1.65625q0 0.109375 -0.15625 2.140625q-0.15625 2.03125 -0.421875 5.046875q-0.265625 3.015625 -0.578125 6.59375q-0.3125 3.5625 -0.625 6.796875q-0.3125 3.21875 -0.578125 5.640625q-0.25 2.421875 -0.40625 3.15625q2.453125 -1.359375 5.109375 -2.546875q2.65625 -1.203125 5.328125 -2.078125q2.6875 -0.890625 5.359375 -1.390625q2.6875 -0.5 5.1875 -0.5q3.1875 0 5.9375 0.921875q2.765625 0.90625 4.8125 3.015625q2.0625 2.109375 3.234375 5.53125q1.171875 3.40625 1.171875 8.34375q0 1.25 -0.046875 2.578125q-0.046875 1.328125 -0.203125 2.734375l-2.25 21.296875q-0.25 2.1875 -0.3125 4.5625q-0.046875 2.375 -0.046875 4.875q0 0.40625 0.015625 0.703125q0.03125 0.28125 0.03125 0.484375q0 0.46875 -0.390625 0.734375q-0.390625 0.265625 -1.734375 0.671875l-12.765625 3.546875q-0.578125 0.15625 -1.515625 0.484375q-0.9375 0.34375 -1.8125 0.34375q-0.890625 0 -1.359375 -0.390625q-0.46875 -0.390625 -0.46875 -1.53125q0.359375 -3.90625 0.59375 -6.296875q0.234375 -2.40625 0.359375 -3.828125q0.140625 -1.4375 0.234375 -2.1875q0.109375 -0.765625 0.15625 -1.359375q0.0625 -0.59375 0.15625 -1.34375q0.109375 -0.765625 0.234375 -2.21875q0.140625 -1.46875 0.375 -3.859375q0.234375 -2.390625 0.59375 -6.296875q0.21875 -2.078125 0.453125 -4.140625q0.234375 -2.0625 0.234375 -3.78125q0 -2.1875 -0.234375 -3.984375q-0.234375 -1.796875 -0.84375 -3.0625q-0.59375 -1.28125 -1.640625 -2.0q-1.03125 -0.734375 -2.65625 -0.734375q-1.1875 0 -3.25 0.515625q-2.0625 0.515625 -4.125 1.71875q-2.046875 1.203125 -3.640625 3.15625q-1.578125 1.953125 -1.796875 4.8125q-0.40625 4.015625 -0.640625 6.5625q-0.234375 2.546875 -0.390625 4.21875q-0.15625 1.65625 -0.234375 2.65625q-0.078125 0.984375 -0.140625 1.8125q-0.046875 0.265625 -0.15625 1.28125q-0.09375 1.015625 -0.25 2.421875q-0.15625 1.40625 -0.3125 3.0q-0.15625 1.578125 -0.296875 2.984375q-0.125 1.40625 -0.203125 2.421875q-0.078125 1.015625 -0.078125 1.28125q0 0.421875 0.015625 0.703125q0.03125 0.28125 0.03125 0.546875q0 0.421875 -0.390625 0.703125q-0.375 0.28125 -1.734375 0.65625l-13.59375 4.734375q-0.578125 0.203125 -1.515625 0.515625q-0.9375 0.3125 -1.8125 0.3125q-0.78125 0 -1.3125 -0.4375q-0.515625 -0.4375 -0.515625 -1.484375l5.9375 -76.5zm118.26927 69.265625q-0.15625 1.71875 -0.421875 2.375q-0.25 0.640625 -1.140625 0.84375q-4.421875 1.25 -9.25 2.53125q-4.8125 1.28125 -9.34375 3.359375q-0.15625 0.046875 -0.46875 0.046875q-0.421875 0 -0.5 -0.203125q-0.078125 -0.203125 -0.078125 -0.46875q0 -0.109375 0.03125 -0.375q0.03125 -0.25 0.125 -0.953125q0.109375 -0.703125 0.28125 -1.953125q0.1875 -1.25 0.5 -3.328125q-5.828125 3.796875 -10.328125 5.53125q-4.5 1.75 -8.0 1.75q-8.6875 0 -12.671875 -4.1875q-3.9843597 -4.1875 -3.9843597 -12.53125q0 -1.5 0.046875 -3.09375q0.046875 -1.59375 0.3125 -3.25q0.578125 -6.15625 0.984375 -10.546875q0.421875 -4.40625 0.671875 -7.46875q0.26560974 -3.078125 0.45310974 -5.03125q0.1875 -1.953125 0.3125 -3.25q0.125 -1.3125 0.203125 -2.171875q0.078125 -0.859375 0.1875 -1.6875q0.203125 -1.671875 0.390625 -2.34375q0.1875 -0.671875 1.171875 -0.890625q2.453125 -0.46875 4.65625 -0.859375q2.21875 -0.390625 4.375 -0.828125q2.171875 -0.4375 4.40625 -0.953125q2.234375 -0.53125 4.734375 -1.265625q0.109375 0 0.203125 -0.015625q0.109375 -0.03125 0.21875 -0.03125q0.625 0 0.625 0.421875l0 0.09375q-0.21875 1.78125 -0.375 3.34375q-0.15625 1.5625 -0.3125 3.203125q-0.15625 1.640625 -0.34375 3.515625q-0.171875 1.875 -0.4375 4.34375q-0.25 2.46875 -0.625 5.703125q-0.359375 3.234375 -0.875 7.5q-0.3125 3.125 -0.625 6.21875q-0.3125 3.09375 -0.3125 5.75q0 1.46875 0.203125 2.6875q0.21875 1.21875 0.75 2.078125q0.546875 0.859375 1.4375 1.328125q0.890625 0.46875 2.296875 0.46875q1.09375 0 2.96875 -0.484375q1.875 -0.5 3.75 -1.71875q1.875 -1.234375 3.296875 -3.234375q1.4375 -2.0 1.640625 -5.078125q0.375 -5.15625 0.65625 -8.609375q0.28125 -3.46875 0.484375 -5.828125q0.21875 -2.375 0.375 -3.984375q0.15625 -1.625 0.28125 -3.109375q0.140625 -1.484375 0.234375 -3.171875q0.109375 -1.703125 0.21875 -4.25q0.15625 -1.71875 0.390625 -2.359375q0.234375 -0.65625 1.171875 -0.875q4.734375 -0.9375 9.671875 -1.890625q4.953125 -0.96875 9.703125 -2.484375q0.40625 0 0.484375 0.140625q0.078125 0.125 0.078125 0.390625l-4.890625 51.140625zm54.20703 -35.9375q-1.09375 -0.109375 -2.453125 -0.234375q-1.34375 -0.125 -2.859375 -0.125q-2.28125 0 -4.65625 0.390625q-2.375 0.390625 -4.40625 1.53125q-2.03125 1.140625 -3.484375 3.15625q-1.453125 2.0 -1.875 5.171875q-0.359375 3.859375 -0.59375 6.328125q-0.234375 2.46875 -0.34375 4.0625q-0.109375 1.59375 -0.1875 2.5625q-0.078125 0.953125 -0.125 1.78125q0 0.21875 -0.078125 1.15625q-0.078125 0.9375 -0.234375 2.1875q-0.15625 1.25 -0.296875 2.703125q-0.125 1.453125 -0.28125 2.703125q-0.15625 1.25 -0.234375 2.1875q-0.0625 0.9375 -0.0625 1.15625q0 0.40625 0.015625 0.703125q0.03125 0.28125 0.03125 0.546875q0 0.40625 -0.390625 0.703125q-0.390625 0.28125 -1.75 0.640625l-13.796875 4.953125q-0.578125 0.203125 -1.515625 0.515625q-0.9375 0.3125 -1.8125 0.3125q-0.734375 0 -1.28125 -0.359375q-0.546875 -0.359375 -0.546875 -1.25l4.484375 -51.609375q0.15625 -1.71875 0.390625 -2.359375q0.234375 -0.65625 1.171875 -0.875q4.734375 -0.9375 9.78125 -1.890625q5.0625 -0.96875 9.796875 -2.484375q0.40625 0 0.484375 0.140625q0.078125 0.125 0.078125 0.390625q0 0.09375 -0.03125 0.3125q-0.015625 0.203125 -0.15625 0.9375q-0.125 0.71875 -0.359375 2.203125q-0.234375 1.484375 -0.640625 4.140625q2.390625 -1.875 5.28125 -3.4375q2.890625 -1.5625 5.796875 -2.671875q2.921875 -1.125 5.625 -1.765625q2.71875 -0.65625 4.75 -0.65625l-3.234375 16.140625zm59.53186 35.9375q-0.15625 1.71875 -0.421875 2.375q-0.25 0.640625 -1.140625 0.84375q-4.421875 1.25 -9.25 2.53125q-4.8125 1.28125 -9.34375 3.359375q-0.15625 0.046875 -0.46875 0.046875q-0.421875 0 -0.5 -0.203125q-0.078125 -0.203125 -0.078125 -0.46875q0 -0.109375 0.03125 -0.375q0.03125 -0.25 0.125 -0.953125q0.109375 -0.703125 0.28125 -1.953125q0.1875 -1.25 0.5 -3.328125q-5.828125 3.796875 -10.328125 5.53125q-4.5 1.75 -8.0 1.75q-8.6875 0 -12.671875 -4.1875q-3.984375 -4.1875 -3.984375 -12.53125q0 -1.5 0.046875 -3.09375q0.046875 -1.59375 0.3125 -3.25q0.578125 -6.15625 0.984375 -10.546875q0.421875 -4.40625 0.671875 -7.46875q0.265625 -3.078125 0.453125 -5.03125q0.1875 -1.953125 0.3125 -3.25q0.125 -1.3125 0.203125 -2.171875q0.078125 -0.859375 0.1875 -1.6875q0.203125 -1.671875 0.390625 -2.34375q0.1875 -0.671875 1.171875 -0.890625q2.453125 -0.46875 4.65625 -0.859375q2.21875 -0.390625 4.375 -0.828125q2.171875 -0.4375 4.40625 -0.953125q2.234375 -0.53125 4.734375 -1.265625q0.109375 0 0.203125 -0.015625q0.109375 -0.03125 0.21875 -0.03125q0.625 0 0.625 0.421875l0 0.09375q-0.21875 1.78125 -0.375 3.34375q-0.15625 1.5625 -0.3125 3.203125q-0.15625 1.640625 -0.34375 3.515625q-0.171875 1.875 -0.4375 4.34375q-0.25 2.46875 -0.625 5.703125q-0.359375 3.234375 -0.875 7.5q-0.3125 3.125 -0.625 6.21875q-0.3125 3.09375 -0.3125 5.75q0 1.46875 0.203125 2.6875q0.21875 1.21875 0.75 2.078125q0.546875 0.859375 1.4375 1.328125q0.890625 0.46875 2.296875 0.46875q1.09375 0 2.96875 -0.484375q1.875 -0.5 3.75 -1.71875q1.875 -1.234375 3.296875 -3.234375q1.4375 -2.0 1.640625 -5.078125q0.375 -5.15625 0.65625 -8.609375q0.28125 -3.46875 0.484375 -5.828125q0.21875 -2.375 0.375 -3.984375q0.15625 -1.625 0.28125 -3.109375q0.140625 -1.484375 0.234375 -3.171875q0.109375 -1.703125 0.21875 -4.25q0.15625 -1.71875 0.390625 -2.359375q0.234375 -0.65625 1.171875 -0.875q4.734375 -0.9375 9.671875 -1.890625q4.953125 -0.96875 9.703125 -2.484375q0.40625 0 0.484375 0.140625q0.078125 0.125 0.078125 0.390625l-4.890625 51.140625z" fill-rule="nonzero"/><path fill="#00adb5" d="m211.61957 328.25125q-0.0625 4.484375 -0.875 8.03125q-0.796875 3.53125 -2.28125 6.375q-1.484375 2.828125 -3.59375 5.09375q-2.109375 2.265625 -4.8125 4.25q-5.21875 3.75 -11.421875 5.65625q-6.1875 1.890625 -12.4375 1.890625q-1.046875 0 -2.0625 -0.046875q-1.015625 -0.0625 -2.046875 -0.15625l-1.71875 19.0l-0.890625 1.625q-0.109375 0.203125 -1.78125 0.828125q-1.65625 0.625 -4.15625 1.453125l-3.28125 1.09375q-1.5625 0.578125 -2.765625 1.046875q-1.1875 0.46875 -2.234375 0.828125q-1.03125 0.375 -2.03125 0.546875q-0.984375 0.1875 -2.078125 0.1875q-0.734375 0 -1.15625 -0.375q-0.40625 -0.359375 -0.40625 -1.390625l0.578125 -8.90625q0.15625 -2.65625 0.390625 -5.34375q0.234375 -2.6875 0.4375 -6.125l0.984375 -12.4375q0.3125 -3.796875 0.578125 -7.59375q0.265625 -3.8125 0.515625 -7.25q0.265625 -3.4375 0.46875 -6.421875q0.21875 -3.0 0.375 -5.25q-2.8125 0.625 -4.515625 0.921875q-1.6875 0.28125 -2.578125 0.28125q-1.09375 0 -1.09375 -0.9375q0.734375 -2.546875 1.359375 -5.0q0.578125 -2.078125 1.171875 -4.296875q0.59375 -2.21875 1.015625 -3.71875q0.265625 -0.9375 0.59375 -1.4375q0.34375 -0.5 0.890625 -0.78125q0.546875 -0.28125 1.40625 -0.515625q0.859375 -0.234375 2.109375 -0.65625q0.984375 -0.3125 2.78125 -0.703125q1.796875 -0.390625 4.109375 -0.78125q2.328125 -0.390625 5.03125 -0.75q2.703125 -0.375 5.484375 -0.65625q2.796875 -0.28125 5.5 -0.46875q2.71875 -0.1875 5.109375 -0.1875q5.9375 0 11.25 1.09375q5.3125 1.09375 9.3125 3.734375q4.015625 2.625 6.390625 7.078125q2.375 4.453125 2.375 11.171875zm-38.078125 15.625q0 0.578125 0.203125 1.015625q0.21875 0.4375 1.15625 0.4375q1.453125 0 3.453125 -0.640625q2.015625 -0.65625 4.015625 -1.953125q2.0 -1.3125 3.71875 -3.234375q1.71875 -1.921875 2.609375 -4.53125q0.359375 -1.046875 0.59375 -2.65625q0.234375 -1.609375 0.234375 -3.796875q0 -3.65625 -2.53125 -5.375q-2.515625 -1.71875 -6.578125 -1.71875q-0.671875 0 -1.53125 0.078125q-0.859375 0.078125 -1.625 0.296875q-0.75 0.203125 -1.28125 0.5q-0.515625 0.28125 -0.5625 0.75l-0.109375 1.140625q-0.046875 0.671875 -0.203125 2.21875q-0.15625 1.53125 -0.34375 3.515625q-0.171875 1.96875 -0.359375 4.15625q-0.1875 2.1875 -0.375 4.171875q-0.171875 1.984375 -0.3125 3.5q-0.125 1.5 -0.171875 2.125zm71.133804 -19.640625q4.953125 0 8.984375 1.859375q4.0468597 1.84375 6.9374847 4.796875q2.890625 2.9375 4.453125 6.578125q1.5625 3.640625 1.5625 7.296875q0 3.21875 -1.984375 6.484375q-1.984375 3.25 -5.546875 5.859375q-3.5624847 2.59375 -8.562485 4.21875q-5.0 1.609375 -11.0 1.609375q-3.125 0 -6.546875 -0.625q0.203125 2.234375 1.296875 3.859375q1.09375 1.609375 2.75 2.65625q1.671875 1.03125 3.78125 1.53125q2.109375 0.484375 4.34375 0.484375q2.5 0 4.8125 -0.4375q2.328125 -0.4375 4.453125 -1.171875q2.1406097 -0.734375 4.1249847 -1.609375q1.984375 -0.890625 3.75 -1.78125q0.46875 -0.09375 0.796875 -0.171875q0.34375 -0.078125 0.65625 -0.078125q0 0 -0.03125 0.828125q-0.015625 0.828125 -0.015625 2.34375q0 1.515625 -0.03125 3.65625q-0.015625 2.125 -0.078125 4.734375q0.15625 0.25 0.203125 0.515625q0.0625 0.265625 0.0625 0.421875q0 0.625 -1.15625 1.359375q-1.140625 0.71875 -2.984375 1.5q-1.84375 0.78125 -4.2187347 1.5q-2.375 0.734375 -4.828125 1.328125q-2.4375 0.609375 -4.734375 0.9375q-2.28125 0.34375 -4.0 0.34375q-5.625 0 -10.921875 -1.953125q-5.28125 -1.953125 -9.375 -5.59375q-4.078125 -3.640625 -6.53125 -8.84375q-2.4375 -5.21875 -2.4375 -11.734375q0 -6.8125 2.34375 -12.765625q2.34375 -5.96875 6.578125 -10.390625q4.25 -4.4375 10.125 -6.984375q5.890625 -2.5625 12.96875 -2.5625zm-0.625 13.859375q-2.125 0 -3.921875 0.921875q-1.796875 0.90625 -3.28125 2.59375q-1.484375 1.6875 -2.578125 4.0625q-1.09375 2.375 -1.765625 5.234375q5.359375 -0.9375 8.890625 -1.96875q3.546875 -1.046875 5.671875 -2.109375q2.140625 -1.078125 3.03125 -2.140625q0.890625 -1.078125 0.890625 -2.0625q0 -0.9375 -0.703125 -1.765625q-0.703125 -0.84375 -1.75 -1.46875q-1.046875 -0.625 -2.265625 -0.953125q-1.21875 -0.34375 -2.21875 -0.34375zm82.23897 33.796875q-0.046875 0.203125 -0.046875 0.390625q0 0.1875 0 0.34375q0 1.296875 0.40625 2.15625q0.421875 0.859375 0.90625 1.40625q0.5 0.546875 0.921875 0.890625q0.421875 0.328125 0.421875 0.59375q0 0.734375 -1.5625 1.359375l-14.015625 5.984375q-0.046875 0.046875 -0.359375 0.046875q-0.421875 0 -0.84375 -0.734375q-0.40625 -0.71875 -0.796875 -1.84375q-0.390625 -1.109375 -0.734375 -2.390625q-0.34375 -1.28125 -0.59375 -2.375q-3.28125 3.8125 -7.09375 5.578125q-3.796875 1.765625 -7.546875 1.765625q-4.375 0 -8.546875 -1.921875q-4.15625 -1.921875 -7.390625 -5.484375q-3.21875 -3.578125 -5.171875 -8.625q-1.953125 -5.0625 -1.953125 -11.359375q0 -7.4375 2.15625 -13.578125q2.15625 -6.15625 5.859375 -10.578125q3.703125 -4.4375 8.609375 -6.859375q4.921875 -2.421875 10.453125 -2.421875q3.90625 0 7.390625 1.59375q3.484375 1.59375 6.609375 4.09375q0.3125 -1.5625 0.359375 -2.5q0.0625 -0.9375 0.234375 -1.453125q0.1875 -0.53125 0.703125 -0.703125q0.53125 -0.1875 1.734375 -0.296875q3.75 -0.515625 7.46875 -0.953125q3.71875 -0.453125 7.78125 -0.65625l-5.359375 48.53125zm-15.578125 -19.625q0.53125 -2.96875 0.703125 -5.59375q0.1875 -2.640625 0.296875 -4.828125q-0.84375 -0.625 -1.8125 -1.296875q-0.953125 -0.6875 -2.078125 -1.28125q-1.109375 -0.59375 -2.34375 -0.953125q-1.21875 -0.375 -2.578125 -0.375q-2.8125 0 -4.71875 1.828125q-1.890625 1.8125 -3.0625 4.46875q-1.171875 2.65625 -1.671875 5.625q-0.484375 2.96875 -0.484375 5.265625q0 8.21875 2.15625 12.046875q2.15625 3.828125 6.015625 3.828125q1.5625 0 3.484375 -0.875q1.9375 -0.890625 3.90625 -2.453125l2.1875 -15.40625zm55.462402 -48.96875l-1.875 18.078125q-0.359375 3.640625 -0.75 7.390625q-0.390625 3.75 -0.765625 7.1875q-0.359375 3.4375 -0.671875 6.359375q-0.3125 2.921875 -0.515625 4.796875l3.59375 -3.96875l5.828125 -6.8125q1.09375 -1.25 2.140625 -2.5q1.046875 -1.25 1.875 -2.21875q0.828125 -0.96875 1.34375 -1.609375q0.53125 -0.65625 0.640625 -0.765625l20.9375 -1.453125q0.15625 -0.046875 0.328125 -0.046875q0.1875 0 0.34375 0q0.890625 0 0.890625 0.46875q0 0.359375 -1.09375 1.609375l-16.3125 18.234375q-1.09375 1.1875 -2.578125 2.78125q-1.484375 1.59375 -3.296875 3.515625l7.59375 9.0625l13.125 14.109375q0.15625 0.265625 0.46875 0.390625q0.3125 0.125 0.59375 0.234375q0.296875 0.109375 0.53125 0.234375q0.234375 0.125 0.234375 0.390625q0 0.203125 -0.078125 0.3125q-0.078125 0.109375 -0.5 0.421875q-0.46875 0.359375 -1.640625 1.046875q-1.171875 0.671875 -2.734375 1.5q-1.5625 0.828125 -3.328125 1.6875q-1.765625 0.859375 -3.4375 1.5625q-1.671875 0.703125 -3.078125 1.140625q-1.40625 0.453125 -2.1875 0.453125q-0.625 0 -1.21875 -0.3125q-0.59375 -0.3125 -1.328125 -1.140625q-0.984375 -1.15625 -2.46875 -3.0q-1.484375 -1.84375 -3.203125 -4.0625q-1.71875 -2.21875 -3.515625 -4.578125q-1.796875 -2.375 -3.4375 -4.53125q-1.640625 -2.171875 -2.96875 -3.90625q-1.328125 -1.75 -2.0625 -2.796875q-0.265625 0.265625 -0.53125 0.40625q-0.25 0.125 -0.484375 0.328125q-0.234375 0.203125 -0.390625 0.5q-0.15625 0.28125 -0.15625 0.796875q0 0.21875 -0.109375 1.1875q-0.09375 0.953125 -0.234375 2.28125q-0.125 1.328125 -0.28125 2.84375q-0.15625 1.5 -0.296875 2.828125q-0.125 1.328125 -0.234375 2.296875q-0.09375 0.96875 -0.09375 1.171875q0 0.359375 0.015625 0.59375q0.03125 0.234375 0.03125 0.453125q0 0.5625 -0.390625 0.859375q-0.375 0.28125 -1.890625 0.703125l-13.640625 4.421875q-0.578125 0.203125 -1.515625 0.515625q-0.9375 0.3125 -1.828125 0.3125q-0.71875 0 -1.265625 -0.359375q-0.546875 -0.359375 -0.546875 -1.359375l6.5625 -75.046875q0 -0.25 -0.0625 -0.484375q-0.046875 -0.234375 -0.046875 -0.5q0 -0.46875 0.390625 -0.859375q0.390625 -0.390625 1.796875 -0.75l14.625 -3.484375q0.578125 -0.109375 1.515625 -0.46875q0.9375 -0.375 1.828125 -0.375q0.671875 0 1.265625 0.3125q0.609375 0.3125 0.609375 1.203125q0 0.09375 -0.03125 0.203125q-0.03125 0.109375 -0.03125 0.203125z" fill-rule="nonzero"/></g></svg>