<svg version="1.1" viewBox="0.0 0.0 531.3175853018373 636.5826771653543" fill="none" stroke="none" stroke-linecap="square" stroke-miterlimit="10" xmlns:xlink="http://www.w3.org/1999/xlink" xmlns="http://www.w3.org/2000/svg"><clipPath id="p.0"><path d="m0 0l531.31757 0l0 636.5827l-531.31757 0l0 -636.5827z" clip-rule="nonzero"/></clipPath><g clip-path="url(#p.0)"><path fill="#000000" fill-opacity="0.0" d="m0 0l531.31757 0l0 636.5827l-531.31757 0z" fill-rule="evenodd"/><path fill="#393e46" d="m448.0137 82.86877l0 0c99.411224 99.41125 99.411224 260.58875 0 360.0q-90.0 90.0 -180.0 180.0q-90.0 -90.0 -180.0 -180.0l0 0c-99.411255 -99.411255 -99.411255 -260.58875 0 -360.0l0 0c99.41126 -99.411255 260.58875 -99.411255 360.0 0z" fill-rule="evenodd"/><path stroke="#000000" stroke-width="24.0" stroke-linejoin="round" stroke-linecap="butt" d="m448.0137 82.86877l0 0c99.411224 99.41125 99.411224 260.58875 0 360.0q-90.0 90.0 -180.0 180.0q-90.0 -90.0 -180.0 -180.0l0 0c-99.411255 -99.411255 -99.411255 -260.58875 0 -360.0l0 0c99.41126 -99.411255 260.58875 -99.411255 360.0 0z" fill-rule="evenodd"/><path fill="#000000" fill-opacity="0.0" d="m38.78478 201.86089l486.61414 0l0 122.01576l-486.61414 0z" fill-rule="evenodd"/><path fill="#00adb5" d="m56.019154 293.8859q0 -0.046875 -0.03125 -0.09375q-0.03125 -0.0625 -0.03125 -0.109375q0 -0.890625 0.9375 -0.890625q0.46875 0 1.046875 0.46875q2.8125 2.65625 6.249996 4.21875q3.4375 1.5625 7.5 1.5625q1.09375 0 2.5 -0.234375q1.40625 -0.234375 2.65625 -0.78125q1.25 -0.546875 2.109375 -1.421875q0.859375 -0.890625 0.859375 -2.25q0 -1.515625 -0.734375 -2.703125q-0.734375 -1.203125 -1.921875 -2.03125q-0.46875 -0.3125 -1.40625 -1.046875q-0.9375 -0.734375 -2.140625 -1.65625q-1.1875 -0.9375 -2.5 -2.0q-1.296875 -1.078125 -2.46875 -2.03125q-1.171875 -0.96875 -2.109375 -1.75q-0.9375 -0.78125 -1.40625 -1.203125q-3.0781212 -2.296875 -4.874996 -4.640625q-1.796875 -2.34375 -2.734375 -4.890625q-0.9375 -2.546875 -1.203125 -5.28125q-0.25 -2.734375 -0.25 -5.8125q0 -4.5781403 2.1875 -8.687515q2.1875 -4.125 6.171871 -7.171875q3.984375 -3.046875 9.546875 -4.84375q5.578125 -1.796875 12.40625 -1.796875q0.828125 0 2.484375 0.1875q1.671875 0.171875 3.671875 0.59375q2.015625 0.421875 4.09375 1.15625q2.09375 0.71875 3.8125 1.859375q0.5625 0.421875 0.90625 0.84375q0.34375 0.40625 0.4375 1.296875q0.265625 4.21875 0.421875 8.3125q0.15625 4.078125 0.421875 8.67189q0 0.875 -0.375 1.171875q-0.359375 0.28125 -0.9375 0.28125q-0.5625 0 -0.875 -0.3125q-1.515625 -1.515625 -3.140625 -2.96875q-1.609375 -1.453125 -3.375 -2.5781403q-1.765625 -1.125 -3.78125 -1.796875q-2.0 -0.671875 -4.34375 -0.671875q-1.40625 0 -2.8125 0.234375q-1.40625 0.234375 -2.5625 0.859375q-1.140625 0.625 -1.84375 1.71875q-0.703125 1.0937653 -0.703125 2.7500153q0 1.78125 0.4375 3.078125q0.453125 1.296875 2.21875 2.453125l12.5 8.484375q3.4375 2.453125 5.578125 4.875q2.140625 2.421875 3.328125 4.8125q1.203125 2.390625 1.640625 4.71875q0.453125 2.3125 0.453125 4.546875q0 3.640625 -1.203125 6.875q-1.203125 3.234375 -3.28125 5.96875q-2.078125 2.734375 -4.875 4.890625q-2.78125 2.15625 -5.96875 3.703125q-3.171875 1.53125 -6.578125 2.328125q-3.40625 0.8125 -6.6875 0.8125q-2.546875 0 -5.03125 -0.078125q-2.46875 -0.078125 -4.8125 -0.421875q-2.3437462 -0.328125 -4.531246 -1.03125q-2.1875 -0.703125 -4.171875 -1.953125l-0.875 -18.59375zm109.82774 12.921875q-0.15625 1.71875 -0.421875 2.375q-0.25 0.640625 -1.140625 0.84375q-4.421875 1.25 -9.25 2.53125q-4.8125 1.28125 -9.34375 3.359375q-0.15625 0.046875 -0.46875 0.046875q-0.421875 0 -0.5 -0.203125q-0.078125 -0.203125 -0.078125 -0.46875q0 -0.109375 0.03125 -0.375q0.03125 -0.25 0.125 -0.953125q0.109375 -0.703125 0.28125 -1.953125q0.1875 -1.25 0.5 -3.328125q-5.828125 3.796875 -10.328125 5.53125q-4.5 1.75 -8.0 1.75q-8.6875 0 -12.671875 -4.1875q-3.984375 -4.1875 -3.984375 -12.53125q0 -1.5 0.046875 -3.09375q0.046875 -1.59375 0.3125 -3.25q0.578125 -6.15625 0.984375 -10.546875q0.421875 -4.40625 0.671875 -7.46875q0.265625 -3.078125 0.453125 -5.03125q0.1875 -1.953125 0.3125 -3.25q0.125 -1.3125 0.203125 -2.171875q0.078125 -0.859375 0.1875 -1.6875q0.203125 -1.671875 0.390625 -2.34375q0.1875 -0.671875 1.171875 -0.890625q2.453125 -0.46875 4.65625 -0.859375q2.21875 -0.390625 4.375 -0.828125q2.171875 -0.4375 4.40625 -0.953125q2.234375 -0.53125 4.734375 -1.2656403q0.109375 0 0.203125 -0.015625q0.109375 -0.03125 0.21875 -0.03125q0.625 0 0.625 0.421875l0 0.09376526q-0.21875 1.78125 -0.375 3.34375q-0.15625 1.5625 -0.3125 3.203125q-0.15625 1.640625 -0.34375 3.515625q-0.171875 1.875 -0.4375 4.34375q-0.25 2.46875 -0.625 5.703125q-0.359375 3.234375 -0.875 7.5q-0.3125 3.125 -0.625 6.21875q-0.3125 3.09375 -0.3125 5.75q0 1.46875 0.203125 2.6875q0.21875 1.21875 0.75 2.078125q0.546875 0.859375 1.4375 1.328125q0.890625 0.46875 2.296875 0.46875q1.09375 0 2.96875 -0.484375q1.875 -0.5 3.75 -1.71875q1.875 -1.234375 3.296875 -3.234375q1.4375 -2.0 1.640625 -5.078125q0.375 -5.15625 0.65625 -8.609375q0.28125 -3.46875 0.484375 -5.828125q0.21875 -2.375 0.375 -3.984375q0.15625 -1.625 0.28125 -3.109375q0.140625 -1.484375 0.234375 -3.171875q0.109375 -1.703125 0.21875 -4.25q0.15625 -1.71875 0.390625 -2.359375q0.234375 -0.65625 1.171875 -0.875q4.734375 -0.9375 9.671875 -1.890625q4.953125 -0.96875 9.703125 -2.4843903q0.40625 0 0.484375 0.140625q0.078125 0.125 0.078125 0.390625l-4.890625 51.14064zm87.37891 8.328125q-0.5625 0.15625 -1.5 0.484375q-0.9375 0.34375 -1.828125 0.34375q-0.71875 0 -1.265625 -0.359375q-0.546875 -0.359375 -0.546875 -1.25l0 -0.3125q0.359375 -3.796875 0.609375 -6.171875q0.265625 -2.375 0.421875 -3.828125q0.15625 -1.453125 0.265625 -2.203125q0.109375 -0.765625 0.203125 -1.40625q0.109375 -0.65625 0.1875 -1.4375q0.078125 -0.78125 0.234375 -2.21875q0.15625 -1.4375 0.390625 -3.796875q0.234375 -2.375 0.59375 -6.234375q0.21875 -2.078125 0.4375 -4.125q0.234375 -2.0625 0.234375 -3.78125q0 -2.1875 -0.234375 -3.984375q-0.21875 -1.796875 -0.828125 -3.0625q-0.59375 -1.28125 -1.640625 -2.015625q-1.03125 -0.734375 -2.65625 -0.734375q-0.984375 0 -2.578125 0.421875q-1.578125 0.421875 -3.203125 1.484375q-1.609375 1.0625 -2.921875 2.8125q-1.296875 1.75 -1.65625 4.40625l0 0.203125q-0.625 5.9375 -1.125 10.28125q-0.484375 4.34375 -0.859375 7.46875q-0.359375 3.125 -0.59375 5.21875q-0.234375 2.078125 -0.390625 3.515625q-0.15625 1.421875 -0.234375 2.359375q-0.078125 0.9375 -0.078125 1.78125q0 0.40625 0.015625 0.703125q0.03125 0.28125 0.03125 0.484375q0 0.421875 -0.390625 0.71875q-0.390625 0.28125 -1.734375 0.6875l-12.25 3.546875q-0.5625 0.15625 -1.5 0.484375q-0.9375 0.34375 -1.828125 0.34375q-0.734375 0 -1.28125 -0.359375q-0.546875 -0.359375 -0.546875 -1.25l0 -0.3125q0.375 -3.796875 0.609375 -6.171875q0.234375 -2.375 0.40625 -3.828125q0.1875 -1.453125 0.28125 -2.203125q0.109375 -0.765625 0.1875 -1.40625q0.078125 -0.65625 0.1875 -1.4375q0.109375 -0.78125 0.234375 -2.21875q0.125 -1.4375 0.359375 -3.796875q0.234375 -2.375 0.609375 -6.234375q0.203125 -2.078125 0.4375 -4.125q0.234375 -2.0625 0.234375 -3.78125q0 -2.1875 -0.21875 -3.984375q-0.203125 -1.796875 -0.75 -3.0625q-0.546875 -1.28125 -1.484375 -2.015625q-0.9375 -0.734375 -2.390625 -0.734375q-1.046875 0 -2.84375 0.53125q-1.796875 0.515625 -3.59375 1.71875q-1.796875 1.1875 -3.171875 3.140625q-1.375 1.953125 -1.59375 4.828125q-0.40625 3.84375 -0.671875 6.328125q-0.265625 2.46875 -0.421875 4.0625q-0.15625 1.578125 -0.234375 2.546875q-0.078125 0.953125 -0.125 1.796875q-0.046875 0.203125 -0.15625 1.171875q-0.109375 0.953125 -0.234375 2.28125q-0.125 1.328125 -0.265625 2.875q-0.125 1.53125 -0.234375 2.859375q-0.09375 1.328125 -0.171875 2.296875q-0.078125 0.953125 -0.078125 1.171875l0 0.9375q0 0.515625 -0.0625 0.890625q-0.046875 0.359375 -0.3125 0.671875q-0.25 0.3125 -0.75 0.578125q-0.484375 0.25 -1.375 0.5625l-13.640625 4.84375q-0.578125 0.203125 -1.515625 0.515625q-0.9375 0.3125 -1.828125 0.3125q-0.71875 0 -1.265625 -0.359375q-0.546875 -0.359375 -0.546875 -1.25l4.6875 -53.125q0.15625 -1.71875 0.390625 -2.359375q0.234375 -0.65625 1.171875 -0.859375q4.734375 -0.9375 9.671875 -1.90625q4.953125 -0.96876526 9.6875 -2.4687653q0.421875 0 0.5 0.125q0.078125 0.125 0.078125 0.390625l-0.671875 7.6093903q1.921875 -1.0 4.3125 -2.171875q2.40625 -1.171875 5.03125 -2.15625q2.625 -0.984375 5.359375 -1.6406403q2.734375 -0.65625 5.34375 -0.65625q3.59375 0 6.640625 1.6406403q3.046875 1.640625 5.03125 5.453125q2.34375 -1.515625 4.96875 -2.8125q2.625 -1.3125 5.359375 -2.25q2.734375 -0.9375 5.484375 -1.4531403q2.765625 -0.515625 5.375 -0.515625q3.28125 0 6.1875 0.93751526q2.921875 0.9375 5.078125 3.078125q2.171875 2.125 3.421875 5.546875q1.25 3.40625 1.25 8.296875q0 1.25 -0.0625 2.578125q-0.046875 1.328125 -0.203125 2.734375l-2.390625 22.28125q-0.265625 2.1875 -0.3125 4.046875q-0.046875 1.84375 -0.046875 4.296875q0 0.40625 0.015625 0.703125q0.03125 0.28125 0.03125 0.484375q0 0.46875 -0.390625 0.734375q-0.390625 0.265625 -1.75 0.671875l-12.8125 3.546875zm101.55258 0q-0.5625 0.15625 -1.5 0.484375q-0.9375 0.34375 -1.828125 0.34375q-0.71875 0 -1.265625 -0.359375q-0.546875 -0.359375 -0.546875 -1.25l0 -0.3125q0.359375 -3.796875 0.609375 -6.171875q0.265625 -2.375 0.421875 -3.828125q0.15625 -1.453125 0.265625 -2.203125q0.109375 -0.765625 0.203125 -1.40625q0.109375 -0.65625 0.1875 -1.4375q0.078125 -0.78125 0.234375 -2.21875q0.15625 -1.4375 0.390625 -3.796875q0.234375 -2.375 0.59375 -6.234375q0.21875 -2.078125 0.4375 -4.125q0.234375 -2.0625 0.234375 -3.78125q0 -2.1875 -0.234375 -3.984375q-0.21875 -1.796875 -0.828125 -3.0625q-0.59375 -1.28125 -1.640625 -2.015625q-1.03125 -0.734375 -2.65625 -0.734375q-0.984375 0 -2.578125 0.421875q-1.578125 0.421875 -3.203125 1.484375q-1.609375 1.0625 -2.921875 2.8125q-1.296875 1.75 -1.65625 4.40625l0 0.203125q-0.625 5.9375 -1.125 10.28125q-0.484375 4.34375 -0.859375 7.46875q-0.359375 3.125 -0.59375 5.21875q-0.234375 2.078125 -0.390625 3.515625q-0.15625 1.421875 -0.234375 2.359375q-0.078125 0.9375 -0.078125 1.78125q0 0.40625 0.015625 0.703125q0.03125 0.28125 0.03125 0.484375q0 0.421875 -0.390625 0.71875q-0.390625 0.28125 -1.734375 0.6875l-12.25 3.546875q-0.5625 0.15625 -1.5 0.484375q-0.9375 0.34375 -1.828125 0.34375q-0.734375 0 -1.28125 -0.359375q-0.546875 -0.359375 -0.546875 -1.25l0 -0.3125q0.375 -3.796875 0.609375 -6.171875q0.234375 -2.375 0.40625 -3.828125q0.1875 -1.453125 0.28125 -2.203125q0.109375 -0.765625 0.1875 -1.40625q0.078125 -0.65625 0.1875 -1.4375q0.109375 -0.78125 0.234375 -2.21875q0.125 -1.4375 0.359375 -3.796875q0.234375 -2.375 0.609375 -6.234375q0.203125 -2.078125 0.4375 -4.125q0.234375 -2.0625 0.234375 -3.78125q0 -2.1875 -0.21875 -3.984375q-0.203125 -1.796875 -0.75 -3.0625q-0.546875 -1.28125 -1.484375 -2.015625q-0.9375 -0.734375 -2.390625 -0.734375q-1.046875 0 -2.84375 0.53125q-1.796875 0.515625 -3.59375 1.71875q-1.796875 1.1875 -3.171875 3.140625q-1.375 1.953125 -1.59375 4.828125q-0.40625 3.84375 -0.671875 6.328125q-0.265625 2.46875 -0.421875 4.0625q-0.15625 1.578125 -0.234375 2.546875q-0.078125 0.953125 -0.125 1.796875q-0.046875 0.203125 -0.15625 1.171875q-0.109375 0.953125 -0.234375 2.28125q-0.125 1.328125 -0.265625 2.875q-0.125 1.53125 -0.234375 2.859375q-0.09375 1.328125 -0.171875 2.296875q-0.078125 0.953125 -0.078125 1.171875l0 0.9375q0 0.515625 -0.0625 0.890625q-0.046875 0.359375 -0.3125 0.671875q-0.25 0.3125 -0.75 0.578125q-0.484375 0.25 -1.375 0.5625l-13.640625 4.84375q-0.578125 0.203125 -1.515625 0.515625q-0.9375 0.3125 -1.828125 0.3125q-0.71875 0 -1.265625 -0.359375q-0.546875 -0.359375 -0.546875 -1.25l4.6875 -53.125q0.15625 -1.71875 0.390625 -2.359375q0.234375 -0.65625 1.171875 -0.859375q4.734375 -0.9375 9.671875 -1.90625q4.953125 -0.96876526 9.6875 -2.4687653q0.421875 0 0.5 0.125q0.078125 0.125 0.078125 0.390625l-0.671875 7.6093903q1.921875 -1.0 4.3125 -2.171875q2.40625 -1.171875 5.03125 -2.15625q2.625 -0.984375 5.359375 -1.6406403q2.734375 -0.65625 5.34375 -0.65625q3.59375 0 6.640625 1.6406403q3.046875 1.640625 5.03125 5.453125q2.34375 -1.515625 4.96875 -2.8125q2.625 -1.3125 5.359375 -2.25q2.734375 -0.9375 5.484375 -1.4531403q2.765625 -0.515625 5.375 -0.515625q3.28125 0 6.1875 0.93751526q2.921875 0.9375 5.078125 3.078125q2.171875 2.125 3.421875 5.546875q1.25 3.40625 1.25 8.296875q0 1.25 -0.0625 2.578125q-0.046875 1.328125 -0.203125 2.734375l-2.390625 22.28125q-0.265625 2.1875 -0.3125 4.046875q-0.046875 1.84375 -0.046875 4.296875q0 0.40625 0.015625 0.703125q0.03125 0.28125 0.03125 0.484375q0 0.46875 -0.390625 0.734375q-0.390625 0.265625 -1.75 0.671875l-12.8125 3.546875zm27.146362 -23.953125q0.671875 -7.140625 1.34375 -14.109375q0.6875 -6.984375 1.203125 -14.328125q0.109375 -1.71875 0.34375 -2.359375q0.234375 -0.65625 1.171875 -0.875q4.421875 -0.875 9.265625 -1.84375q4.84375 -0.96875 9.375 -2.4687653q0.15625 -0.0625 0.46875 -0.0625q0.5625 0 0.5625 0.421875l-4.671875 50.718765q-0.15625 1.71875 -0.375 2.375q-0.203125 0.65625 -1.140625 0.859375q-4.421875 1.359375 -8.953125 3.03125q-4.53125 1.65625 -9.59375 3.375q-0.15625 0.046875 -0.46875 0.046875q-0.5625 0 -0.5625 -0.515625q0 -0.046875 0.09375 -1.40625q0.109375 -1.359375 0.28125 -3.484375q0.1875 -2.140625 0.390625 -4.796875q0.21875 -2.65625 0.453125 -5.3125q0.234375 -2.65625 0.4375 -5.09375q0.21875 -2.453125 0.375 -4.171875zm3.90625 -41.562515q0.15625 -2.234375 0.234375 -3.4375q0.078125 -1.203125 0.125 -1.796875q0.046875 -0.59375 0.046875 -0.75q0 -0.15625 0.03125 -0.234375q0.03125 -0.078125 0.046875 -0.3125q0.03125 -0.234375 0.078125 -0.984375q0.0625 -0.765625 0.15625 -2.21875q0.109375 -1.46875 0.3125 -4.015625q0.109375 -1.71875 0.34375 -2.359375q0.234375 -0.65625 1.171875 -0.859375q4.421875 -0.890625 9.265625 -1.84375q4.84375 -0.96875 9.375 -2.484375q0.15625 -0.046875 0.46875 -0.046875q0.15625 0.3125 0.421875 0.40625l0.15625 0.109375l-1.15625 14.265625q-0.15625 1.71875 -0.390625 2.40625q-0.234375 0.671875 -1.109375 0.828125q-4.421875 0.828125 -8.953125 1.828125q-4.53125 0.984375 -9.59375 1.96875q-0.15625 0.046875 -0.46875 0.046875q-0.5625 0 -0.5625 -0.515625zm54.668762 23.48439q-0.71875 5.46875 -1.375 10.921875q-0.65625 5.4375 -0.8125 10.171875q0 2.03125 0.3125 3.390625q0.3125 1.34375 0.90625 2.125q0.609375 0.78125 1.4375 1.125q0.84375 0.34375 1.875 0.34375q1.671875 0 3.640625 -0.5q1.984375 -0.5 3.96875 -1.28125q0.625 -0.25 1.0625 -0.375q0.453125 -0.140625 0.765625 -0.140625q0.515625 0 0.6875 0.46875q0.1875 0.46875 0.375 1.640625q0.1875 1.171875 0.546875 3.15625q0.359375 1.96875 1.203125 5.0q0.046875 0.25 0.0625 0.4375q0.03125 0.1875 0.03125 0.34375q0 0.71875 -0.546875 1.03125q-0.546875 0.3125 -1.796875 0.734375q-2.125 0.734375 -4.5 1.484375q-2.375 0.75 -4.6875 1.375q-2.3125 0.625 -4.453125 1.015625q-2.140625 0.390625 -3.75 0.390625q-8.6875 0 -12.671875 -4.3125q-3.984375 -4.328125 -3.984375 -13.1875q0 -1.5 0.09375 -3.09375q0.109375 -1.59375 0.265625 -3.3125q0.515625 -5.203125 0.90625 -9.859375q0.390625 -4.65625 0.8125 -8.9375l-5.46875 0q-2.8125 0 -4.0625 -0.234375q-1.25 -0.234375 -1.25 -0.953125q0 -0.21875 0.515625 -1.125q0.53125 -0.90625 1.328125 -2.1875q0.8125 -1.28125 1.75 -2.734375q0.9375 -1.453125 1.796875 -2.734375q0.859375 -1.28125 1.484375 -2.21875q0.625 -0.9375 0.78125 -1.140625l3.703125 0q0.46875 -3.9531403 0.75 -6.6406403q0.28125 -2.6875 0.46875 -4.453125q0.1875 -1.765625 0.34375 -2.734375q0.15625 -0.96875 0.328125 -1.4375q0.1875 -0.46875 0.46875 -0.59375q0.296875 -0.125 0.765625 -0.234375q2.34375 -0.46875 4.53125 -0.859375q2.1875 -0.390625 4.359375 -0.796875q2.1875 -0.421875 4.453125 -0.96875q2.265625 -0.546875 4.71875 -1.28125q0.15625 0 0.203125 -0.015625q0.0625 -0.03125 0.21875 -0.03125q0.625 0 0.625 0.40625l0 0.109375q-0.265625 2.859375 -0.8125 7.96875q-0.546875 5.109375 -1.21875 11.562515l13.953125 0q0.421875 0 0.8125 0.296875q0.390625 0.28125 0.390625 0.953125q0 0.265625 -0.625 1.875q-0.625 1.609375 -1.78125 4.21875l-1.875 4.21875q-0.359375 0.78125 -0.75 1.15625q-0.390625 0.359375 -1.59375 0.453125l-9.6875 0zm42.141083 -20.781265q-1.671875 8.125015 -3.265625 16.23439q-1.578125 8.09375 -2.9375 16.375q-0.09375 1.71875 -0.328125 2.390625q-0.234375 0.671875 -1.171875 0.828125q-2.03125 0.375 -4.015625 0.796875q-1.984375 0.40625 -4.171875 0.984375q-0.40625 0 -0.484375 -0.125q-0.078125 -0.140625 -0.078125 -0.40625l-0.53125 -51.45314q0.109375 -1.65625 0.359375 -2.328125q0.265625 -0.6875 1.15625 -0.890625q4.421875 -1.0 8.953125 -2.265625q4.53125 -1.28125 9.578125 -2.578125q0.15625 -0.046875 0.46875 -0.046875q0.578125 0 0.578125 0.515625q0 0.046875 -0.21875 1.28125q-0.203125 1.21875 -0.546875 3.140625q-0.328125 1.921875 -0.75 4.34375q-0.40625 2.421875 -0.875 4.84375q-0.46875 2.421875 -0.921875 4.640625q-0.4375 2.21875 -0.796875 3.71875zm-1.828125 43.125015q-0.15625 2.234375 -0.234375 3.4375q-0.078125 1.203125 -0.125 1.796875q-0.046875 0.59375 -0.046875 0.75q0 0.15625 -0.03125 0.234375q-0.03125 0.078125 -0.0625 0.3125q-0.015625 0.234375 -0.078125 1.0q-0.046875 0.75 -0.15625 2.21875q-0.09375 1.453125 -0.296875 4.0q-0.109375 1.71875 -0.34375 2.375q-0.234375 0.640625 -1.171875 0.859375q-4.421875 0.875 -9.265625 1.84375q-4.84375 0.96875 -9.375 2.46875q-0.15625 0.0625 -0.46875 0.0625l-0.46875 -0.421875q-0.109375 -0.109375 -0.109375 -0.109375l1.140625 -14.265625q0.109375 -1.671875 0.34375 -2.34375q0.234375 -0.671875 1.171875 -0.890625q4.421875 -0.78125 8.953125 -1.765625q4.53125 -0.984375 9.59375 -2.03125q0.15625 -0.046875 0.46875 -0.046875q0.5625 0 0.5625 0.515625z" fill-rule="nonzero"/></g></svg>